<svg width="16" height="16" viewBox="0 0 16 16" fill="none" xmlns="http://www.w3.org/2000/svg">
<g clip-path="url(#clip0_37_748)">
<path fill-rule="evenodd" clip-rule="evenodd" d="M10.8056 9.17206C10.8056 9.49069 10.5456 9.74899 10.2249 9.74899H5.84541C5.52473 9.74899 5.26476 9.49069 5.26476 9.17206C5.26476 8.85344 5.52473 8.59514 5.84541 8.59514H10.2249C10.5456 8.59514 10.8056 8.85344 10.8056 9.17206Z" fill="#1AA483"/>
<path fill-rule="evenodd" clip-rule="evenodd" d="M8.03516 6.41943C8.35584 6.41943 8.6158 6.67772 8.6158 6.99635V11.3478C8.6158 11.6664 8.35584 11.9247 8.03516 11.9247C7.71447 11.9247 7.45451 11.6664 7.45451 11.3478V6.99635C7.45451 6.67772 7.71447 6.41943 8.03516 6.41943Z" fill="#1AA483"/>
<path fill-rule="evenodd" clip-rule="evenodd" d="M5.76139 1.55299C6.00223 1.16116 6.42465 0.902832 6.9011 0.902832H9.16921C9.64566 0.902832 10.0681 1.16116 10.3089 1.55299L10.7337 2.24402C11.1533 2.27665 11.5512 2.31176 11.8986 2.34444C12.91 2.4396 13.698 3.24101 13.7774 4.24423C13.884 5.59247 14.0352 7.78581 14.0352 9.41112C14.0352 10.945 13.9008 12.6866 13.7958 13.8148C13.7039 14.8028 12.921 15.5783 11.9293 15.672C10.8517 15.7738 9.25 15.9028 8.03516 15.9028C6.82031 15.9028 5.21859 15.7738 4.14099 15.672C3.14926 15.5783 2.36644 14.8028 2.27453 13.8148C2.16956 12.6866 2.03516 10.945 2.03516 9.41112C2.03516 7.78581 2.18627 5.59247 2.29295 4.24422C2.37233 3.24101 3.16034 2.4396 4.17175 2.34444C4.5191 2.31176 4.91703 2.27665 5.33665 2.24402L5.76139 1.55299ZM5.05346 3.4245C4.77888 3.44743 4.51831 3.47084 4.28122 3.49315C3.83471 3.53516 3.48607 3.8873 3.45067 4.33466C3.34404 5.68223 3.19645 7.83553 3.19645 9.41112C3.19645 10.891 3.32685 12.5904 3.43089 13.7086C3.47121 14.1421 3.81243 14.4819 4.25092 14.5233C5.32595 14.6249 6.88004 14.749 8.03516 14.749C9.19027 14.749 10.7444 14.6249 11.8194 14.5233C12.2579 14.4819 12.5991 14.142 12.6394 13.7086C12.7435 12.5904 12.8739 10.891 12.8739 9.41112C12.8739 7.83553 12.7263 5.68223 12.6196 4.33466C12.5842 3.8873 12.2356 3.53516 11.7891 3.49315C11.552 3.47084 11.2914 3.44743 11.0168 3.4245C10.9866 3.58806 10.9293 3.74414 10.8492 3.8849C10.6305 4.26954 10.217 4.57583 9.68534 4.57583H6.38498C5.85329 4.57583 5.43984 4.26954 5.22109 3.8849C5.14103 3.74414 5.08372 3.58806 5.05346 3.4245ZM6.9011 2.05668C6.85985 2.05668 6.79882 2.07899 6.75248 2.15437L6.23635 2.99409C6.22875 3.00645 6.22229 3.01875 6.21684 3.03093C6.17521 3.12382 6.18384 3.23235 6.23213 3.31726C6.2782 3.39827 6.33563 3.42198 6.38498 3.42198H9.68534C9.73468 3.42198 9.79211 3.39827 9.83818 3.31726C9.88647 3.23235 9.8951 3.12382 9.85348 3.03093C9.84802 3.01875 9.84156 3.00645 9.83396 2.99409L9.31783 2.15437C9.2715 2.07899 9.21046 2.05668 9.16921 2.05668H6.9011Z" fill="#1AA483"/>
</g>
<defs>
<clipPath id="clip0_37_748">
<rect width="15" height="15" fill="white" transform="translate(0.535156 0.902832)"/>
</clipPath>
</defs>
</svg>
