<svg width="360" height="301" viewBox="0 0 360 301" fill="none" xmlns="http://www.w3.org/2000/svg">
    <mask id="mask0_63_6414" style="mask-type:alpha" x="0" y="0" width="360" height="360">
        <path
            d="M0 0H360V280.433C360 291.478 351.046 300.433 340 300.433H20C8.95432 300.433 0 291.478 0 280.433V0Z"
            fill="#D9D9D9" />
    </mask>
    <g mask="url(#mask0_63_6414)">
        <path fill-rule="evenodd" clip-rule="evenodd"
            d="M179.526 -10.0159C174.499 3.55316 174.857 -3.92973 175.018 84.2993L175.167 165.459L168.757 165.399C160.748 165.324 155.591 168.289 152.423 174.791C148.945 181.929 148.975 181.955 160.459 181.59C166.04 181.413 171.816 181.733 173.313 182.303C175.86 183.271 176.032 183.708 176.032 189.217V195.097L172.324 196.063C170.286 196.595 163.945 198.179 158.235 199.585C152.526 200.991 147.075 202.371 146.124 202.652C144.486 203.136 144.395 198.719 144.421 119.358L144.447 35.5544L147.303 38.9766L150.158 42.3979L151.35 39.7988C152.397 37.514 151.73 34.5063 145.848 15.0123C142.166 2.8096 138.844 -7.17415 138.466 -7.17415C138.087 -7.17415 136.774 -3.74801 135.546 0.438405L133.315 8.05096L133.467 106.881L133.618 205.711L128.872 206.29C126.261 206.607 120.01 207.166 114.98 207.531L105.835 208.195V127.822V47.4477L109.096 50.587C112.838 54.1909 113.301 54.3284 114.162 52.0977C114.872 50.2599 101.73 4.31246 100.804 5.39197C100.475 5.77407 98.7502 10.1746 96.9686 15.1704C93.8167 24.0118 93.7593 24.4519 94.8389 31.6636C95.5913 36.6909 95.9482 65.9044 95.9482 122.525C95.9482 214.016 96.3862 208.061 89.9687 203.764C85.2279 200.59 83.1339 196.381 81.4373 186.612C79.0734 173.001 76.9635 170.5 69.5494 172.521C62.0294 174.57 57.0296 179.547 52.5341 189.459C49.2507 196.699 46.514 207.94 46.514 214.189C46.514 218.478 46.3676 218.678 39.8908 223.27C36.2484 225.853 26.7936 234.189 18.8812 241.797C10.9687 249.403 2.89614 256.832 0.941507 258.306C-2.55053 260.938 -6.22548 261.677 -8.54295 260.212C-11.862 258.116 -12.8081 248.54 -10.288 242.547C-8.13067 237.419 -2.96183 229.421 -0.301273 227.096C2.13485 224.968 6.96655 215.95 6.96655 213.533C6.96655 212.292 6.48012 212.224 4.07959 213.124C-0.0333405 214.667 -1.93162 212.827 -1.93162 207.298C-1.93162 202.272 0.810987 196.392 7.15736 187.806C12.7424 180.25 13.2101 179.456 12.085 179.456C8.99731 179.456 -2.12342 193.686 -7.87361 204.995C-12.0291 213.169 -13.0791 222.883 -10.1891 226.424C-8.34325 228.687 -8.36104 228.756 -13.2886 238.591C-18.0877 248.169 -18.2449 248.748 -18.236 256.943C-18.2301 263.201 -17.7674 266.247 -16.4584 268.64C-14.4385 272.332 -9.46046 275.709 -6.02775 275.714C-4.18286 275.717 -3.85363 276.077 -4.44486 277.437C-12.7953 296.642 -14.7133 307.988 -11.0147 316.296C-8.03675 322.985 -4.1789 325.067 4.24767 324.534C7.91866 324.302 10.9055 324.384 10.8857 324.718C10.8669 325.051 10.2065 327.975 9.41849 331.216C7.18307 340.414 7.52615 347.164 10.5337 353.161C15.1272 362.319 22.6204 365.19 32.702 361.656C35.0304 360.84 37.0631 360.299 37.2203 360.454C37.3765 360.611 37.0453 362.715 36.4847 365.131C35.9232 367.547 35.6513 372.933 35.8797 377.1C36.2227 383.339 36.81 385.5 39.2115 389.36C43.3027 395.935 47.4839 398.502 54.1031 398.502C63.6884 398.502 69.0224 394.882 91.1541 373.357C101.931 362.876 111.133 354.3 111.602 354.3C112.072 354.3 113.257 356.067 114.238 358.227C116.617 363.466 124.834 371.024 131.541 374.14C146.754 381.208 162.728 380.029 180.743 370.508C188.388 366.467 189.056 366.274 188.416 368.295C186.997 372.772 186.655 387.976 187.853 393.294C190.09 403.224 197.907 408.706 206.539 406.398C211.663 405.027 218.263 399.864 223.082 393.457C225.262 390.559 229.658 384.724 232.852 380.493C246.983 361.759 258.197 359.864 273.078 373.693C275.729 376.156 278.068 377.994 278.277 377.777C279.045 376.981 283.798 364.727 283.798 363.544C283.798 362.871 280.35 359.907 276.136 356.958C258.686 344.743 254.561 336.99 259.828 326.305C261.843 322.216 267.036 316.973 269.071 316.973C270.098 316.973 272.981 320.285 276.405 325.398C281.699 333.302 287.368 338.688 291.894 340.116C297.855 341.995 305.86 336.874 310.17 328.426L312.686 323.493L314.534 325.882C315.549 327.195 316.392 328.565 316.403 328.926C316.415 329.287 317.924 330.503 319.755 331.627C327.219 336.21 336.059 332.849 341.725 323.276C342.717 321.598 343.056 321.745 346.073 325.159C350.38 330.031 353.856 331.707 359.652 331.707C363.498 331.707 365.121 331.134 368.044 328.74C372.779 324.862 376.666 316.577 377.375 308.848C377.884 303.305 377.562 301.807 373.964 292.908C371.779 287.506 368.613 280.053 366.929 276.347C364.74 271.529 364.292 269.78 365.358 270.208C366.178 270.538 367.515 271.075 368.331 271.403C371.649 272.737 369.673 266.029 363.295 254.305C359.709 247.714 356.63 242.321 356.455 242.321C356.279 242.321 354.932 245.91 353.462 250.294L350.79 258.268L353.414 269.024C356.241 280.615 360.758 292.339 367.066 304.457C371.465 312.911 371.26 314.431 365.611 315.255C358.13 316.346 353.457 312.856 347.989 302.093C346.382 298.932 344.907 296.346 344.709 296.346C344.512 296.346 343.362 298.969 342.156 302.174C339.063 310.389 334.046 315.991 329.783 315.991C324.82 315.991 321.192 310.887 317.226 298.326C316.959 297.48 314.978 300.283 312.505 305.006C302.164 324.753 291.821 327.829 283.041 313.77C281.01 310.52 277.978 306.308 276.302 304.41C273.774 301.549 272.809 301.073 270.635 301.615C266.063 302.754 261.2 308.039 257.081 316.343C252.248 326.087 249.969 336.005 250.804 343.671L251.411 349.249L247.427 350.315C241.337 351.943 232.431 359.068 224.458 368.689C214.992 380.112 207.802 387.52 204.509 389.244C202.07 390.521 201.624 390.452 199.269 388.431C195.669 385.344 193.979 375.492 195.519 366.564C196.487 360.947 197.227 359.508 201.578 354.776C209.958 345.666 214.503 333.668 214.887 319.634C215.062 313.244 214.776 311.95 212.402 308.385C209.398 303.872 200.186 296.972 191.604 292.804L185.919 290.043V269.167V248.291L189.626 247.345C191.666 246.825 194.188 246.255 195.233 246.079C197.042 245.774 205.605 233.321 205.665 230.906C205.68 230.3 203.356 229.498 200.502 229.123C197.647 228.747 193.184 227.987 190.582 227.434L185.853 226.428L186.133 215.957L186.413 205.486L196.794 202.923C202.504 201.512 208.829 200.106 210.85 199.797C214.374 199.259 214.551 199.368 215.133 202.449C215.466 204.216 215.259 219.282 214.671 235.929C214.083 252.575 213.602 267.896 213.602 269.974C213.602 272.052 213.2 273.754 212.71 273.754C209.234 273.754 208.656 254.168 211.624 236.919C213.975 223.262 213.906 224.641 212.23 224.641C209.286 224.641 204.745 249.348 204.738 265.405C204.734 276.748 206.392 284.929 209.606 289.412C211.447 291.982 211.776 293.457 211.391 297.435C210.851 303.016 211.986 303.347 215.085 298.512C216.172 296.814 218.058 293.976 219.274 292.203C223.859 285.517 226.518 278.63 230.912 262.042C234.842 247.211 241.506 229.413 242.678 230.624C242.892 230.845 242.197 238.098 241.134 246.741C238.944 264.55 239.258 272.967 242.35 279.312C244.642 284.017 249.122 287.949 253.396 289.009C256.079 289.674 256.115 289.789 256.115 297.517C256.115 303.326 256.435 305.254 257.351 304.979C258.462 304.646 261.891 298.641 264.519 292.427C265.15 290.936 267 289.601 269.625 288.743C275.072 286.963 282.095 279.456 284.435 272.909C285.428 270.132 286.491 267.86 286.798 267.86C287.105 267.86 287.944 269.518 288.663 271.544C291.878 280.611 298.773 285.48 308.45 285.519C319.096 285.563 326.483 279.309 330.302 267.024C333.836 255.658 332.523 243.736 326.21 229.872C321.16 218.781 321.088 218.528 323.305 219.708C324.354 220.266 325.486 221.161 325.821 221.699C327.05 223.675 328.289 222.591 328.289 219.54C328.289 217.386 325.92 212.445 320.742 203.791C316.59 196.855 313.07 191.304 312.917 191.458C312.765 191.61 311.73 195.269 310.617 199.588L308.594 207.442L313.93 227.582C316.865 238.66 320.435 251.401 321.865 255.895C324.744 264.947 324.59 265.602 318.949 268.261C314.169 270.514 307.395 270.286 304.167 267.763C297.517 262.567 294.108 250.56 293.316 229.552C292.999 221.178 292.273 211.539 291.699 208.132C290.438 200.626 287.805 193.746 286.638 194.905C286.17 195.37 284.543 199.488 283.019 204.056L280.251 212.362L281.565 226.605C283.226 244.625 282.752 256.155 280.105 262.099C277.74 267.412 271.661 273.754 268.936 273.754C267.013 273.754 266.991 272.457 266.991 160.138V46.5233L270.358 50.3699L273.726 54.2174L274.413 51.5457C274.9 49.6499 273.34 42.8055 269.038 27.9713C265.705 16.4749 262.617 6.19841 262.178 5.13363C261.559 3.63371 260.618 5.5118 257.992 13.4829L254.605 23.7672L255.472 147.831C255.948 216.066 256.029 272.202 255.651 272.578C254.428 273.793 249.321 267.074 248.611 263.314C248.169 260.973 248.866 253.831 250.557 243.38C252.312 232.538 253.185 223.385 253.171 215.99L253.149 204.884L250.095 206.658C245.167 209.522 239.426 216.376 235.993 223.495C234.234 227.142 230.403 237.951 227.479 247.517C224.555 257.081 222.014 264.757 221.83 264.575C221.646 264.392 222.187 253.674 223.032 240.759C223.877 227.842 224.812 213.202 225.107 208.226L225.645 199.178L233.636 198.894L241.626 198.61L244.668 193.044C246.342 189.983 247.48 187.249 247.198 186.968C246.916 186.688 242.128 185.835 236.559 185.075C230.99 184.314 226.144 183.404 225.791 183.053C225.437 182.703 224.975 148.929 224.763 108.002L224.377 33.5899L227.744 37.3971L231.112 41.2034L232.664 39.0031C233.517 37.793 234.054 36.3009 233.857 35.687C233.661 35.0741 231.951 29.4889 230.058 23.2761C228.165 17.0632 225.21 7.3958 223.491 1.79394C221.771 -3.80891 220.01 -8.00809 219.577 -7.53759C219.144 -7.06806 217.791 -3.64685 216.57 0.0641499L214.35 6.81234L214.526 93.6249C214.623 141.373 214.566 180.431 214.4 180.421C214.233 180.411 207.645 178.012 199.76 175.09L185.424 169.778L185.21 100.21L184.996 30.6431L188.425 34.5721C191.258 37.8175 192.024 38.2448 192.827 37.0278C193.36 36.2174 193.804 34.966 193.813 34.246C193.831 32.695 181.167 -10.2575 180.496 -10.9254C180.241 -11.1779 179.805 -10.7683 179.526 -10.0159ZM39.3183 151.873C37.1659 154.413 35.7867 158.407 32.8454 170.616L32.0169 174.054L29.7617 169.634C26.4081 163.062 23.9472 160.793 20.1764 160.793C16.2809 160.793 14.876 162.852 14.876 168.564C14.876 171.733 15.3832 172.865 17.3883 174.171C19.946 175.836 20.0449 175.82 25.8732 172.817C26.2123 172.642 27.7448 175.364 29.2802 178.864C30.8146 182.365 32.3768 185.04 32.7515 184.81C33.1262 184.58 33.7461 182.318 34.1287 179.781C35.2222 172.537 38.5738 162.708 40.1557 162.105C40.9477 161.803 42.2765 162.117 43.1079 162.803C45.2662 164.583 46.6346 162.851 47.2327 157.584C48.1552 149.447 43.9464 146.409 39.3183 151.873ZM344.699 157.172C342.001 159.85 338.868 167.772 337.243 176.018C335.419 185.278 335.325 185.329 332.149 178.755C328.87 171.968 325.356 168.644 321.482 168.666C316.974 168.693 314.448 171.936 314.448 177.7C314.448 184.464 320.363 188.166 325.336 184.514L327.977 182.574L331.791 190.347C333.889 194.622 335.909 197.787 336.281 197.383C336.652 196.977 337.475 193.013 338.11 188.573C339.449 179.212 341.633 172.249 343.789 170.472C345.026 169.452 345.826 169.522 348.165 170.856C351.008 172.477 351.037 172.468 352.621 169.424C354.403 165.999 354.073 158.834 352.018 156.374C350.239 154.244 347.325 154.561 344.699 157.172ZM110.1 163.003C110.663 169.697 110.912 170.296 114.248 172.961C119.822 177.413 121.972 182.503 122.597 192.717C123.105 201.046 123.22 201.415 124.58 199.102C125.572 197.41 126.034 193.59 126.063 186.823C126.1 177.829 125.845 176.462 123.043 170.616C120.16 164.6 112.75 155.882 110.519 155.882C109.862 155.882 109.715 158.398 110.1 163.003ZM292.911 162.781C292.043 164.162 291.855 166.688 292.3 171C292.711 174.983 292.566 177.455 291.899 177.866C290.376 178.801 289.608 177.067 288.13 169.361C287.403 165.573 286.538 162.207 286.207 161.88C285.877 161.553 284.814 162.255 283.845 163.441C282.343 165.281 282.228 166.322 283.064 170.52C284.19 176.176 283.545 178.759 281.126 178.296C279.109 177.91 278.099 174.749 277.965 168.406C277.911 165.839 277.582 163.74 277.234 163.74C276.314 163.74 274.163 166.626 271.82 171.002C270.258 173.917 270.12 174.693 271.233 174.269C272.326 173.852 272.861 174.746 273.353 177.812C274.661 185.952 278.813 188.56 283.501 184.184C285.277 182.527 286.07 182.303 286.975 183.202C288.844 185.058 294.444 184.596 296.651 182.403C298.928 180.141 299.168 174.191 297.298 166.275C296.017 160.849 294.756 159.846 292.911 162.781ZM28.7849 189.185C26.0165 193.048 26.2083 193.928 29.7063 193.417C33.8331 192.816 33.4089 193.913 28.8086 195.742C22.7875 198.136 22.1913 200.711 24.6749 213.605C25.8109 219.503 26.7403 225.505 26.7403 226.941C26.7403 231.777 28.5693 229.602 29.294 223.904C29.9653 218.621 28.7789 211.451 26.2845 205.72C25.6626 204.292 26.6602 203.481 31.9951 201.077C38.0469 198.351 41.5705 195.242 41.5705 192.628C41.5705 191.266 34.279 186.332 32.267 186.332C31.4761 186.332 29.91 187.616 28.7849 189.185ZM191.66 187.448C198.163 189.012 198.58 189.829 193.526 191.093C191.113 191.696 188.415 192.466 187.529 192.804C186.224 193.301 185.919 192.745 185.919 189.875C185.919 187.926 186.167 186.332 186.469 186.332C186.773 186.332 189.108 186.834 191.66 187.448ZM74.1794 194.436C80.4279 211.678 85.659 219.294 92.1606 220.613L95.4539 221.281L95.7465 235.485C95.9077 243.297 95.7752 251.131 95.4519 252.895C94.5008 258.089 89.2084 262.19 72.0675 271.019C63.1793 275.598 48.3846 284.262 39.1918 290.274C20.7024 302.362 8.06795 309.024 2.12595 309.816C-6.04455 310.904 -8.89097 303.466 -5.39992 290.151C-3.06267 281.235 0.366083 275.436 5.16121 272.288C7.51329 270.744 16.448 262.596 25.015 254.182C40.4612 239.011 47.7439 233.504 52.3808 233.489C56.2911 233.476 62.5079 237.011 70.4273 243.751L77.8533 250.071L79.4224 241.531L80.9924 232.99L77.8415 230.263C76.1093 228.763 70.5746 224.421 65.5422 220.614C60.5098 216.807 55.95 212.869 55.4082 211.864C51.7787 205.127 57.9442 193.304 67.2764 189.102C70.8811 187.479 71.9608 188.313 74.1794 194.436ZM176.032 216.419V224.896L171.336 224.293C168.752 223.961 161.411 223.394 155.022 223.033L143.405 222.376V219.617C143.405 217.265 143.952 216.708 147.113 215.84C149.152 215.281 156.159 213.31 162.685 211.461C169.21 209.614 174.882 208.066 175.29 208.022C175.699 207.978 176.032 211.757 176.032 216.419ZM347.13 212.648C345.131 214.633 344.108 216.626 344.108 218.537C344.108 221.386 344.194 221.431 350.59 221.941C354.155 222.226 357.38 222.764 357.756 223.139C358.818 224.193 355.295 226.333 346.86 229.759C341.044 232.121 339.52 233.109 340.685 233.757C343.138 235.121 348.999 233.679 356.991 229.747C362.665 226.956 365.235 224.975 368.079 221.203C370.116 218.501 371.784 215.935 371.787 215.5C371.796 213.898 362.342 210.619 356.335 210.139C350.458 209.671 350 209.796 347.13 212.648ZM133.518 221.655C133.518 223.091 132.448 223.868 129.316 224.705C122.355 226.566 119.632 228.457 117.643 232.809C116.608 235.076 115.756 239.149 115.744 241.892C115.72 247.421 116.331 248.203 126.598 255.773C129.588 257.98 133.049 260.746 134.288 261.921L136.541 264.06L130.648 270.449C127.407 273.963 122.563 280.123 119.883 284.137C115.393 290.865 114.186 291.93 104.486 297.717C98.6958 301.172 87.2893 308.796 79.1366 314.66C52.7239 333.659 45.1862 338.645 36.1328 343.106C17.8777 352.101 11.731 349.727 13.216 334.253C14.1622 324.403 15.3229 322.321 22.1696 318.197C25.5301 316.174 34.4134 310.319 41.9126 305.186C49.4108 300.054 63.6271 290.758 73.5031 284.528C100.747 267.346 104.739 261.399 105.597 236.716L106.081 222.76L110.161 222.262C112.404 221.989 117.353 221.368 121.16 220.88C132.567 219.423 133.518 219.482 133.518 221.655ZM133.518 242.384V247.358L129.811 245.271C121.499 240.592 121.115 239.715 126.794 238.379C133.336 236.839 133.518 236.948 133.518 242.384ZM166.145 239.21L171.583 239.883L164.071 243.992C159.939 246.252 154.535 249.637 152.06 251.513C147.916 254.657 147.397 254.811 145.483 253.479C143.282 251.947 142.728 246.912 144.044 240.375L144.683 237.202L152.695 237.87C157.101 238.237 163.154 238.84 166.145 239.21ZM47.7498 255.579C45.983 257.966 44.5366 260.316 44.5366 260.801C44.5366 262.251 56.557 270.172 57.2471 269.176C57.5971 268.671 59.3362 266.199 61.1119 263.686L64.341 259.113L58.4474 255.138C55.2065 252.95 52.1969 251.179 51.7589 251.2C51.321 251.221 49.5166 253.192 47.7498 255.579ZM177.02 269.891C177.02 286.33 176.893 287.601 175.29 287.135C171.712 286.096 161.704 284.559 158.515 284.559C156.694 284.559 152.931 283.414 150.154 282.017L145.105 279.474L142.878 281.859C140.62 284.28 132.028 287.335 130.829 286.143C130.468 285.786 133.371 282.385 137.278 278.587L144.382 271.68L147.695 274.191C149.516 275.571 151.299 276.701 151.655 276.701C152.012 276.701 152.303 274.302 152.303 271.37C152.303 266.407 152.558 265.83 155.999 263.012C159.954 259.774 173.734 252.225 175.785 252.174C176.729 252.151 177.02 256.332 177.02 269.891ZM29.2575 260.635C27.3295 263.143 25.7634 265.463 25.7783 265.792C25.7921 266.119 28.5229 268.308 31.8448 270.656L37.8847 274.924L40.1429 272.129C41.3847 270.592 43.1149 268.142 43.9879 266.685L45.5737 264.037L39.6723 260.055C36.4254 257.865 33.5434 256.073 33.2666 256.073C32.9897 256.073 31.1854 258.126 29.2575 260.635ZM232.989 298.835C231.842 299.974 231.705 300.947 232.424 302.828C232.947 304.195 233.376 306.359 233.376 307.636C233.376 309.97 235.255 312.521 237.529 313.274C239.258 313.847 232.053 325.565 224.457 334.534L218.319 341.783L222.348 339.532C228.094 336.324 231.657 332.337 238.1 321.91C242.825 314.265 244.326 312.58 247.217 311.673C249.973 310.81 250.744 310.014 251.002 307.769C251.526 303.215 250.351 300.411 247.252 298.819C243.424 296.853 234.975 296.862 232.989 298.835ZM58.6254 302.999C56.8586 305.574 55.4121 307.991 55.4121 308.367C55.4121 308.744 57.8601 310.887 60.8509 313.132C66.9541 317.709 66.9689 317.706 72.0052 310.739L75.1562 306.38L68.9225 302.346C65.4948 300.126 62.498 298.311 62.2637 298.312C62.0304 298.313 60.3922 300.422 58.6254 302.999ZM142.317 303.278C143.711 307.902 149.511 314.055 155.189 316.933C161.326 320.043 161.537 319.854 160.876 311.817C160.555 307.9 159.986 303.409 159.613 301.839L158.934 298.982L164.764 299.591C167.97 299.925 172.039 300.701 173.807 301.315L177.02 302.432V310.18V317.928L173.313 320.359C171.274 321.696 167.736 323.444 165.45 324.242C157.698 326.95 118.453 336.712 117.827 336.088C116.644 334.907 117.428 313.576 118.815 309.236L120.188 304.937L129.077 302.173C133.967 300.653 138.675 299.383 139.541 299.351C140.546 299.313 141.549 300.733 142.317 303.278ZM247.1 304.112C248.175 304.788 248.018 305.114 246.368 305.633C244.13 306.339 242.274 305.665 242.274 304.146C242.274 302.988 245.281 302.966 247.1 304.112ZM239.133 306.496C239.348 307.6 238.785 308.133 237.402 308.133C235.143 308.133 235.078 308.023 235.969 305.717C236.722 303.767 238.696 304.253 239.133 306.496ZM202.865 317C208.17 321.97 208.658 322.782 208.658 326.615C208.658 332.611 205.794 337.397 197.807 344.743C189.949 351.972 177.058 359.137 167.628 361.52C149.683 366.052 131.966 363.58 125.703 355.668C122.669 351.837 123.112 350.734 128.196 349.462C137.733 347.076 161.931 339.319 167.407 336.893C176.913 332.681 182.199 325.021 184.193 312.571L185.359 305.288L191.216 308.43C194.437 310.158 199.679 314.014 202.865 317ZM109.887 314.989C109.29 317.754 108.801 324.565 108.801 330.125C108.801 339.832 108.707 340.275 106.435 341.303C103.335 342.707 92.9209 351.653 78.4465 365.349C61.3195 381.554 53.6908 385.739 46.6 382.821C42.2142 381.016 40.2279 375.948 40.2793 366.689C40.31 361.181 40.7173 358.708 41.6882 358.131C42.4396 357.685 58.1805 346.546 76.6689 333.376C95.1573 320.207 110.438 309.551 110.628 309.697C110.817 309.843 110.483 312.224 109.887 314.989ZM343.733 338.994C341.764 341.381 340.154 343.796 340.154 344.36C340.154 345.258 351.15 353.317 352.374 353.317C353.567 353.317 360.086 343.276 359.318 342.621C357.741 341.28 348.067 334.654 347.685 334.654C347.481 334.654 345.702 336.607 343.733 338.994ZM309.379 344.28C305.902 344.687 302.633 348.327 301.941 352.564L301.375 356.021L307.874 356.432C311.448 356.659 314.69 357.16 315.079 357.546C316.186 358.646 312.592 360.882 305.055 363.78C296.022 367.255 295.259 368.051 300.972 368.051C304.012 368.051 308.327 366.959 313.12 364.977C319.427 362.369 321.212 361.067 324.914 356.382C327.314 353.346 329.277 350.357 329.277 349.741C329.279 347.326 315.548 343.559 309.379 344.28ZM326.561 370.466C316.692 374.026 303.519 380.757 294.424 386.887C290.585 389.475 288.248 391.882 287.232 394.295C286.406 396.262 285.851 398.197 285.999 398.596C286.149 398.995 290.419 396.726 295.49 393.555C305.845 387.079 323.294 378.075 330.761 375.355C333.48 374.365 336.032 373.09 336.431 372.522C337.385 371.165 337.397 367.055 336.446 367.118C336.038 367.145 331.59 368.651 326.561 370.466ZM256.886 375.664C256.055 376.609 252.916 381.198 249.91 385.862C240.584 400.333 228.665 410.151 207.141 421.089C197.471 426.003 197.377 426.085 202.024 425.493C221.996 422.952 238.707 411.13 250.784 390.999C251.85 389.223 252.019 389.222 256.922 390.974C262.653 393.021 263.68 392.685 265.596 388.129C269.076 379.854 262.048 369.797 256.886 375.664ZM105.835 381.515C102.381 382.111 100.892 384.442 100.892 389.252V393.378L104.561 391.52C108.003 389.776 110.779 389.133 110.779 390.077C110.779 390.305 109.034 393.731 106.903 397.689C101.343 408.012 101.333 411.959 106.857 414.232C110.826 415.865 115.971 414.48 122.89 409.917C128.435 406.26 138.078 396.811 137.177 395.916C136.905 395.645 131.958 397.884 126.186 400.891C113.795 407.348 108.801 408.133 108.801 403.624C108.801 401.938 111.076 397.428 114.733 391.866C117.996 386.904 120.665 382.389 120.665 381.832C120.665 380.838 110.957 380.63 105.835 381.515ZM261.124 381.837C263.426 383.061 263.637 384.75 261.488 384.75C259.131 384.75 255.986 382.806 256.64 381.754C257.391 380.548 258.745 380.573 261.124 381.837ZM161.219 396.02C153.189 407.615 150.161 418.863 154.112 422.415C158.43 426.298 166.2 422.642 167.66 416.041C168.531 412.098 167.763 411.619 164.574 414.111C162.536 415.703 161.595 415.932 160.568 415.085C158.503 413.383 158.976 408.617 162.089 399.729C163.651 395.272 164.779 391.626 164.596 391.626C164.413 391.626 162.893 393.603 161.219 396.02Z"
            fill="white" fill-opacity="0.03" />
        <path fill-rule="evenodd" clip-rule="evenodd"
            d="M170.282 123.587C170.28 120.096 170.928 118.249 172.834 116.307C173.857 115.265 173.917 115.334 173.396 116.956C171.85 121.77 175.041 127.891 180.425 130.443C183.371 131.839 189.365 131.8 192.405 130.363L194.589 129.331L193.325 130.806C192.63 131.616 191.011 132.864 189.728 133.578C187.812 134.645 186.756 134.906 183.819 135.038L180.244 135.2V137.4C180.244 138.863 180.522 139.873 181.074 140.418C181.752 141.087 181.796 141.392 181.317 142.076C180.402 143.384 180.589 145.002 181.691 145.314C183.209 145.745 184.624 147.678 184.624 149.321C184.624 150.404 184.221 151.178 183.164 152.121C182.361 152.838 181.704 153.588 181.704 153.786C181.704 154.404 185.724 157.877 188.204 159.4C189.503 160.198 192.569 161.663 195.017 162.656C202.99 165.888 205.694 167.388 209.202 170.523C212.639 173.595 214.587 176.305 216.329 180.44C216.852 181.68 217.189 182.152 217.078 181.489C216.967 180.826 217.066 180.179 217.298 180.051C217.926 179.704 217.807 177.079 217.135 176.48C216.681 176.074 216.687 175.958 217.164 175.958C217.5 175.958 217.633 175.751 217.459 175.499C216.879 174.662 217.653 173.156 219.639 171.255L221.601 169.377L223.793 171.363C225.982 173.346 225.985 173.353 225.997 176.5C226.019 182.372 226.182 183.564 226.966 183.564C227.458 183.564 227.745 183.033 227.847 181.934C227.963 180.684 228.209 180.304 228.902 180.304C229.714 180.304 229.784 180.007 229.592 177.37C229.325 173.699 230.195 171.994 233.415 169.875C234.686 169.039 235.727 168.005 235.727 167.579C235.727 167.153 236.055 166.691 236.457 166.554C236.939 166.388 237.187 165.706 237.187 164.539C237.187 162.539 237.5 162.483 237.736 164.441C237.822 165.158 238.281 166.211 238.756 166.781C239.231 167.351 239.62 168.072 239.62 168.381C239.62 168.692 240.015 169.057 240.497 169.194C240.979 169.331 242.238 170.234 243.295 171.202L245.217 172.961L245.207 176.633C245.199 179.81 245.309 180.304 246.029 180.304C246.636 180.304 246.902 180.737 247.013 181.9C247.096 182.778 247.438 183.577 247.772 183.675C248.232 183.81 248.381 182.79 248.381 179.507C248.381 176.438 248.202 175.097 247.772 174.941C247.302 174.77 247.315 174.626 247.833 174.302C248.381 173.96 248.456 172.023 248.248 163.59L247.995 153.296L249.35 152.058L250.706 150.819L252.017 152.041L253.328 153.263L252.979 158.737C252.725 162.716 252.787 164.38 253.206 164.83C253.598 165.253 253.619 165.539 253.271 165.732C252.977 165.894 252.761 167.651 252.761 169.877C252.761 173.105 252.901 173.812 253.612 174.169C254.424 174.575 254.424 174.61 253.612 174.889C252.861 175.147 252.761 175.852 252.766 180.894C252.772 187.518 253.103 189.866 254.031 189.866C254.54 189.866 254.63 189.235 254.434 187.054C254.253 185.051 254.387 183.885 254.899 183.001C255.678 181.655 259.275 178.566 260.063 178.566C260.329 178.566 260.548 178.198 260.548 177.749C260.548 177.301 260.876 176.69 261.278 176.393C261.679 176.095 262.023 175.24 262.042 174.492C262.071 173.363 262.143 173.28 262.468 174.002C262.683 174.48 262.77 175.011 262.659 175.182C262.549 175.352 262.913 175.897 263.468 176.393C264.023 176.888 264.356 177.468 264.209 177.681C264.061 177.894 264.939 178.708 266.158 179.49C269.415 181.579 270.407 183.245 270.204 186.287C270.042 188.729 270.063 188.776 271.255 188.625C274.746 188.183 276.577 188.384 277.709 189.333C280.021 191.273 280.108 190.963 279.843 181.717L279.597 173.133L280.84 171.85L282.084 170.567L283.441 171.924L284.799 173.28L284.553 182.659C284.418 187.818 284.492 192.039 284.716 192.039C284.942 192.038 286.042 191.088 287.162 189.927C289.216 187.796 291.977 186.337 295.096 185.734C296.029 185.553 297.05 185.091 297.364 184.708C297.888 184.067 298.008 184.067 298.831 184.71C299.323 185.094 300.493 185.534 301.43 185.685C305.173 186.292 308.906 188.91 311.416 192.689C311.857 193.352 312.141 193.237 313.971 191.651C315.338 190.467 316.05 189.464 316.088 188.671L316.146 187.475L316.501 188.562C317.302 191.016 317.624 191.487 318.988 192.206C319.773 192.621 320.749 193.535 321.156 194.238C321.563 194.941 322.067 195.516 322.275 195.516C322.483 195.516 323.666 194.942 324.904 194.241C326.78 193.179 327.232 192.655 327.624 191.09C327.94 189.826 328.113 189.568 328.153 190.3C328.295 192.944 328.697 193.333 333.327 195.317C338.643 197.596 340.365 199.142 340.365 201.634C340.365 202.571 340.599 203.339 340.884 203.339C341.211 203.339 341.367 202.249 341.305 200.405C341.193 197.102 342.125 194.564 343.731 193.797C344.289 193.53 344.745 193.025 344.745 192.674C344.745 192.312 345.483 192.765 346.449 193.72C347.386 194.646 348.152 195.722 348.152 196.111C348.152 196.501 348.346 196.819 348.583 196.819C348.82 196.819 348.899 198.091 348.76 199.644C348.62 201.198 348.7 202.468 348.937 202.467C349.811 202.463 352.939 199.417 353.844 197.689C354.363 196.698 354.416 196.682 354.446 197.509C354.465 198.008 355.574 199.42 356.913 200.647C359.164 202.711 359.618 203.608 359.429 205.62C359.383 206.111 359.701 206.381 360.325 206.381C361.271 206.381 361.293 206.699 361.293 220.723V224.97H376.081V280.433C376.081 291.479 367.127 300.433 356.081 300.433H3.91895C-7.12674 300.433 -16.0811 291.479 -16.0811 280.433V224.97H-1.29199V220.971V206.876L-0.196938 206.737C0.611456 206.635 0.860155 206.352 0.752598 205.657C0.524826 204.18 1.94012 201.653 3.30626 201.097C3.98958 200.819 4.5483 200.394 4.5483 200.152C4.5483 199.91 4.91381 199.352 5.36059 198.911C6.14659 198.136 6.19867 198.144 6.94233 199.15C7.81984 200.337 11.7177 203.339 12.3816 203.339C12.624 203.339 12.822 202.349 12.822 201.14C12.822 199.931 12.6541 199.034 12.4492 199.147C12.2439 199.26 11.8263 198.881 11.5216 198.304C11.2165 197.726 11.1654 197.254 11.4077 197.254C11.6501 197.254 11.8487 196.982 11.8487 196.649C11.8487 196.317 12.5524 195.284 13.4124 194.356L14.9761 192.668L16.5759 194.182C17.4558 195.015 18.1757 196.047 18.1757 196.475C18.1757 196.904 18.3397 197.254 18.5407 197.253C18.7417 197.252 18.8337 198.719 18.7456 200.513C18.6112 203.248 18.7086 203.773 19.3505 203.773C19.9326 203.773 20.0971 203.353 20.0382 202.017C19.9331 199.614 21.2019 198.205 25.0117 196.5C29.7555 194.376 31.803 193.196 31.803 192.588C31.803 191.835 32.6099 191.894 32.9443 192.672C33.2767 193.445 36.8587 195.516 37.8643 195.516C38.2643 195.516 38.9248 194.941 39.3316 194.238C39.739 193.535 40.7143 192.621 41.4998 192.206C42.2849 191.792 43.0319 191.096 43.1599 190.659C43.4568 189.646 44.4794 189.63 44.7733 190.634C44.9704 191.308 47.7178 193.342 48.4293 193.342C48.5739 193.342 49.3404 192.413 50.1337 191.278C52.2158 188.297 57.0384 185.597 60.3869 185.539C61.1563 185.525 61.5705 185.172 61.8075 184.328L62.1423 183.136L62.5672 184.274C62.888 185.133 63.4141 185.473 64.715 185.661C67.5281 186.069 70.4643 187.576 73.0968 189.965L75.5711 192.209L75.5755 186.8C75.5784 183.825 75.7016 180.843 75.85 180.174C75.9984 179.505 75.9726 178.745 75.7931 178.486C75.6135 178.226 75.4748 176.95 75.4845 175.65C75.4986 173.801 75.7522 173.033 76.6487 172.123C77.2794 171.484 77.8357 170.891 77.8853 170.807C77.9345 170.723 78.6022 171.227 79.3683 171.927L80.7617 173.2L80.604 181.533C80.5174 186.116 80.5821 189.866 80.7476 189.866C80.913 189.866 81.6056 189.474 82.286 188.996C83.769 187.955 87.1461 187.83 88.5312 188.765C89.0505 189.116 89.6165 189.41 89.7879 189.417C89.9597 189.425 89.9991 188.209 89.876 186.715C89.6837 184.387 89.8146 183.782 90.7914 182.488C91.4183 181.658 92.8438 180.386 93.9593 179.663C95.0743 178.94 96 178.03 96.0165 177.641C96.0331 177.252 96.3747 176.69 96.7763 176.393C97.1778 176.095 97.5413 175.24 97.5842 174.492L97.662 173.133L97.8557 174.513C97.9623 175.272 98.3653 176.127 98.7513 176.413C99.1372 176.699 99.4531 177.186 99.4531 177.495C99.4531 177.804 100.523 178.759 101.832 179.616C105.019 181.706 105.929 183.492 105.601 187.021C105.331 189.941 105.471 190.379 106.558 190.006C107.473 189.693 107.564 175.552 106.656 174.741C106.202 174.336 106.215 174.22 106.716 174.22C107.239 174.22 107.313 172.258 107.11 163.76C106.861 153.36 106.865 153.295 107.957 152.243C109.331 150.919 109.535 150.925 110.985 152.322C112.149 153.444 112.161 153.533 111.821 159.102C111.541 163.706 111.603 164.816 112.158 165.13C112.643 165.404 112.663 165.516 112.229 165.521C111.783 165.526 111.62 166.69 111.62 169.873C111.62 172.964 111.789 174.22 112.204 174.22C112.658 174.22 112.658 174.336 112.204 174.741C111.83 175.076 111.62 176.789 111.62 179.522C111.62 183.018 111.751 183.781 112.35 183.781C112.877 183.781 113.08 183.298 113.08 182.043C113.08 180.602 113.245 180.304 114.04 180.304C114.922 180.304 114.991 180.031 114.892 176.936C114.798 174 114.93 173.395 115.915 172.222C116.537 171.482 117.9 170.407 118.944 169.832C119.988 169.257 120.847 168.469 120.854 168.079C120.862 167.69 121.196 167.129 121.598 166.831C121.999 166.533 122.363 165.679 122.405 164.931L122.483 163.572L122.682 165.009C122.791 165.799 123.194 166.554 123.577 166.685C123.96 166.817 124.274 167.276 124.274 167.706C124.274 168.146 125.331 169.166 126.687 170.036C130.073 172.208 130.792 173.628 130.383 177.335C130.074 180.138 130.112 180.304 131.058 180.304C131.907 180.304 132.061 180.577 132.061 182.073C132.061 183.658 132.175 183.827 133.156 183.703C134.215 183.568 134.255 183.392 134.355 178.38L134.458 173.196L136.688 171.233C138.717 169.447 138.941 169.351 139.18 170.17C139.325 170.665 139.958 171.315 140.587 171.616C141.888 172.237 143.02 174.313 142.596 175.298C142.44 175.661 142.47 175.958 142.662 175.958C142.855 175.958 142.934 176.958 142.84 178.182C142.709 179.864 142.821 180.361 143.3 180.218C143.648 180.115 144.087 179.514 144.276 178.882C144.873 176.888 147.758 172.784 149.918 170.855C152.807 168.274 158.362 165.127 163.499 163.159C170.155 160.609 174.543 157.935 176.922 154.978L177.892 153.773L176.391 152.247C173.939 149.753 174.55 146.823 177.84 145.304C178.838 144.843 179.27 144.319 179.27 143.568C179.27 142.977 179.051 142.493 178.784 142.493C178.025 142.493 178.212 140.489 179.027 139.885C179.504 139.532 179.757 138.564 179.757 137.094C179.757 134.904 179.71 134.829 177.998 134.276C175.694 133.532 172.652 131.047 171.335 128.832C170.51 127.446 170.283 126.313 170.282 123.587ZM108.49 156.538C108.864 157.408 110.647 156.937 110.647 155.968C110.647 155.547 110.334 154.971 109.951 154.687C109.395 154.275 109.15 154.346 108.736 155.037C108.451 155.513 108.34 156.189 108.49 156.538ZM250.814 157.27C251.514 157.27 251.787 156.98 251.787 156.236C251.787 155.157 250.715 154.026 250.161 154.521C249.985 154.678 249.841 155.361 249.841 156.038C249.841 156.98 250.07 157.27 250.814 157.27ZM60.8205 178.81C62.5074 178.155 63.9246 176.61 63.9246 175.426C63.9246 175.002 64.0341 174.654 64.168 174.654C64.3018 174.654 64.4113 175.331 64.4113 176.158C64.4113 178.044 62.8592 179.441 60.7908 179.418L59.301 179.401L60.8205 178.81ZM139.848 177.131C139.848 176.343 139.586 175.463 139.264 175.176C138.943 174.889 138.513 174.654 138.308 174.654C137.711 174.654 136.928 176.24 136.928 177.45C136.928 178.4 137.145 178.566 138.388 178.566C139.716 178.566 139.848 178.435 139.848 177.131ZM218.936 178.566C219.461 178.566 219.666 178.085 219.666 176.853C219.666 175.048 218.999 174.184 218.5 175.344C217.924 176.686 218.178 178.566 218.936 178.566ZM223.073 177.131C223.073 176.343 222.81 175.463 222.489 175.176C222.167 174.889 221.773 174.654 221.613 174.654C220.849 174.654 220.152 175.837 220.152 177.131C220.152 178.435 220.285 178.566 221.613 178.566C222.94 178.566 223.073 178.435 223.073 177.131ZM224.289 178.566C224.79 178.566 225.017 178.122 225.012 177.153C225.004 175.618 224.42 174.465 223.891 174.938C223.709 175.1 223.559 175.983 223.559 176.9C223.559 178.091 223.768 178.566 224.289 178.566ZM299.422 179.58C297.487 179.58 295.59 177.775 295.59 175.934C295.59 175.23 295.809 174.654 296.076 174.654C296.344 174.654 296.563 175.034 296.563 175.499C296.563 176.955 298.659 178.71 300.396 178.71C301.431 178.71 301.787 178.856 301.462 179.145C301.195 179.384 300.276 179.58 299.422 179.58ZM135.955 178.566C136.223 178.566 136.442 177.783 136.442 176.827C136.442 175.871 136.223 175.089 135.955 175.089C135.687 175.089 135.468 175.871 135.468 176.827C135.468 177.783 135.687 178.566 135.955 178.566ZM141.308 178.566C141.576 178.566 141.795 177.783 141.795 176.827C141.795 175.871 141.576 175.089 141.308 175.089C141.041 175.089 140.822 175.871 140.822 176.827C140.822 177.783 141.041 178.566 141.308 178.566ZM77.4872 177.378C78.2246 178.036 79.2544 177.148 78.8485 176.204C78.6874 175.83 78.3234 175.523 78.0387 175.523C77.2502 175.523 76.8643 176.822 77.4872 177.378ZM281.962 177.262C282.498 177.262 282.936 176.98 282.936 176.636C282.936 175.88 282.421 175.572 281.597 175.835C280.616 176.15 280.9 177.262 281.962 177.262ZM16.7156 201.789C16.7156 200.936 16.4888 199.861 16.2119 199.398C15.7081 198.558 14.7318 198.301 14.1201 198.848C13.9414 199.007 13.7954 200.082 13.7954 201.238C13.7954 203.282 13.8344 203.339 15.2555 203.339C16.6046 203.339 16.7156 203.221 16.7156 201.789ZM346.692 201.789C346.692 200.936 346.465 199.861 346.188 199.398C345.685 198.558 344.708 198.301 344.097 198.848C343.918 199.007 343.772 200.082 343.772 201.238C343.772 203.282 343.811 203.339 345.232 203.339C346.581 203.339 346.692 203.221 346.692 201.789ZM17.689 203.339C17.9566 203.339 18.1757 202.361 18.1757 201.166C18.1757 198.962 18.1075 198.764 17.5269 199.282C17.0086 199.745 17.1521 203.339 17.689 203.339ZM342.312 203.339C342.58 203.339 342.799 202.361 342.799 201.166C342.799 198.962 342.73 198.764 342.15 199.282C341.632 199.745 341.775 203.339 342.312 203.339ZM347.665 203.339C347.933 203.339 348.152 202.361 348.152 201.166C348.152 198.962 348.084 198.764 347.503 199.282C346.985 199.745 347.129 203.339 347.665 203.339Z"
            fill="#22836C" />
    </g>
</svg>
