<svg width="16" height="16" viewBox="0 0 16 16" fill="none" xmlns="http://www.w3.org/2000/svg">
<g clip-path="url(#clip0_37_756)">
<path d="M12.6684 15.9019C12.4577 15.9012 12.2492 15.8548 12.055 15.7652C11.8608 15.6756 11.6847 15.5447 11.5369 15.38L8.03466 11.5587L4.53247 15.3825C4.30755 15.6329 4.01909 15.8032 3.70471 15.8711C3.39033 15.939 3.0646 15.9014 2.76998 15.7631C2.47245 15.6318 2.21792 15.405 2.03963 15.1124C1.86133 14.8198 1.76757 14.4751 1.77058 14.1231V4.02686C1.77058 3.19805 2.07056 2.4032 2.60454 1.81715C3.13851 1.2311 3.86274 0.901855 4.61789 0.901855L11.4514 0.901855C11.8254 0.901855 12.1956 0.982686 12.5411 1.13973C12.8865 1.29678 13.2004 1.52696 13.4648 1.81715C13.7292 2.10733 13.9389 2.45183 14.082 2.83097C14.2251 3.21011 14.2987 3.61647 14.2987 4.02686V14.1231C14.3019 14.4748 14.2085 14.8194 14.0306 15.1119C13.8528 15.4044 13.5987 15.6314 13.3016 15.7631C13.1011 15.8552 12.8858 15.9023 12.6684 15.9019ZM4.61789 2.15186C4.1648 2.15186 3.73026 2.3494 3.40988 2.70103C3.08949 3.05266 2.9095 3.52957 2.9095 4.02686V14.1231C2.9093 14.2273 2.93722 14.3291 2.98974 14.4159C3.04226 14.5026 3.11703 14.5703 3.20459 14.6104C3.29216 14.6506 3.3886 14.6613 3.48172 14.6413C3.57485 14.6213 3.66049 14.5715 3.72782 14.4981L7.63604 10.235C7.74274 10.1186 7.88707 10.0532 8.03751 10.0532C8.18795 10.0532 8.33229 10.1186 8.43898 10.235L12.3426 14.4969C12.41 14.5702 12.4956 14.6201 12.5887 14.6401C12.6819 14.6601 12.7783 14.6493 12.8659 14.6092C12.9534 14.5691 13.0282 14.5014 13.0807 14.4146C13.1332 14.3279 13.1612 14.226 13.161 14.1219V4.02686C13.161 3.52957 12.981 3.05266 12.6606 2.70103C12.3402 2.3494 11.9057 2.15186 11.4526 2.15186H4.61789Z" fill="#1AA483"/>
</g>
<defs>
<clipPath id="clip0_37_756">
<rect width="15" height="15" fill="white" transform="translate(0.535156 0.902832)"/>
</clipPath>
</defs>
</svg>
