<svg width="33" height="33" viewBox="0 0 33 33" fill="none" xmlns="http://www.w3.org/2000/svg">
<path d="M16.6186 11.1604C16.6186 11.1604 15.8196 4.24863 7.33008 0.932739V11.1604H16.6186Z" fill="#F0F5FA"/>
<path d="M16.6191 11.1604C16.6191 11.1604 17.4182 4.24863 25.9077 0.932739V11.1604H16.6191Z" fill="#E4ECF2"/>
<path d="M16.721 11.1605C13.0141 4.53714 4.13307 2.50195 4.13307 2.50195L2.36914 4.29434L14.5756 12.4145L16.721 11.1605Z" fill="#E4ECF2"/>
<path d="M16.5156 11.1605C20.2225 4.53714 29.1036 2.50195 29.1036 2.50195L30.8675 4.29434L18.661 12.4146L16.5156 11.1605Z" fill="#F0F5FA"/>
<path d="M32.194 25.3909L19.746 32.3929C19.3168 32.6344 18.7864 32.3242 18.7864 31.8317L18.1426 21.6006L18.7864 11.5369C18.7864 11.3042 18.9119 11.0897 19.1146 10.9757L31.5626 3.97365C31.9918 3.7322 32.5222 4.04235 32.5222 4.53484V24.8297C32.5222 25.0624 32.3967 25.2769 32.194 25.3909Z" fill="#15C69B"/>
<path d="M31.5613 3.97378L29.9454 4.88272V24.8297C29.9454 25.0624 29.8199 25.2769 29.6173 25.3909L18.7852 31.484V31.8317C18.7852 32.3242 19.3155 32.6343 19.7447 32.3929L32.1927 25.3909C32.3955 25.2769 32.5209 25.0624 32.5209 24.8297V4.5349C32.5209 4.04248 31.9905 3.73233 31.5613 3.97378Z" fill="#1AA483"/>
<path d="M13.4911 32.393L1.04302 25.391C0.840268 25.2769 0.714844 25.0624 0.714844 24.8298V4.53496C0.714844 4.04254 1.24519 3.73239 1.67439 3.97377L14.1224 10.9758C14.3251 11.0898 14.4506 11.3043 14.4506 11.537V31.8318C14.4506 32.3243 13.9203 32.6344 13.4911 32.393Z" fill="#15C69B"/>
<path d="M14.1224 10.9758L1.67439 3.97384C1.24519 3.73239 0.714844 4.04254 0.714844 4.53496V4.88278L11.5469 10.9758C11.7497 11.0899 11.8751 11.3044 11.8751 11.537V31.484L13.491 32.393C13.9202 32.6344 14.4506 32.3243 14.4506 31.8318L15.0944 21.6329L14.4506 11.537C14.4506 11.3044 14.3251 11.0899 14.1224 10.9758Z" fill="#1AA483"/>
<path d="M30.161 12.4148L21.1466 17.5657V14.4526L30.161 9.30173V12.4148Z" fill="white"/>
<path d="M18.1427 32.9327H15.0951C14.7395 32.9327 14.4512 32.6444 14.4512 32.2888V11.8043C14.4512 11.4487 14.7395 11.1604 15.0951 11.1604H18.1427C18.4983 11.1604 18.7866 11.4487 18.7866 11.8043V32.2888C18.7866 32.6444 18.4983 32.9327 18.1427 32.9327Z" fill="#15C69B"/>
<path d="M18.1423 11.1604H15.9531C16.3087 11.1604 16.597 11.4487 16.597 11.8043V32.2888C16.597 32.6444 16.3087 32.9327 15.9531 32.9327H18.1423C18.4979 32.9327 18.7861 32.6444 18.7861 32.2888V11.8043C18.7861 11.4487 18.4979 11.1604 18.1423 11.1604Z" fill="#1AA483"/>
<path d="M14.4512 13.4064H18.7865V15.5526H14.4512V13.4064Z" fill="#FFDA45"/>
<path d="M14.4512 28.5405H18.7865V30.6867H14.4512V28.5405Z" fill="#FFDA45"/>
<path d="M16.6196 25.4268C16.3529 25.4268 16.1367 25.2107 16.1367 24.9439V19.1492C16.1367 18.8824 16.3529 18.6663 16.6196 18.6663C16.8863 18.6663 17.1025 18.8824 17.1025 19.1492V24.9439C17.1025 25.2106 16.8863 25.4268 16.6196 25.4268Z" fill="white"/>
</svg>
