<svg width="33" height="33" viewBox="0 0 33 33" fill="none" xmlns="http://www.w3.org/2000/svg">
<path d="M16.6191 0.932739L8.61914 16.9327L16.6191 32.9327C25.4557 32.9327 32.6191 25.7693 32.6191 16.9327C32.6191 8.09618 25.4557 0.932739 16.6191 0.932739Z" fill="#14CFFF"/>
<path d="M0.619141 16.9327C0.619141 25.7693 7.78258 32.9327 16.6191 32.9327V0.932739C7.78258 0.932739 0.619141 8.09618 0.619141 16.9327Z" fill="#14CFFF"/>
<path d="M16.6191 4.68274L10.4941 16.9327L16.6191 29.1827C23.3846 29.1827 28.8691 23.6982 28.8691 16.9327C28.8691 10.1672 23.3846 4.68274 16.6191 4.68274Z" fill="#E4F5FF"/>
<path d="M4.36914 16.9327C4.36914 23.6982 9.85364 29.1827 16.6191 29.1827V4.68274C9.85364 4.68274 4.36914 10.1672 4.36914 16.9327Z" fill="#E4F5FF"/>
<path d="M15.6973 21.1514L15.6973 17.4014L14.8134 16.5175L13.8223 19.2764L13.8223 21.1514H15.6973Z" fill="#340D66"/>
<path d="M15.6972 10.8702L13.8222 10.8702L13.8222 19.2764L15.6972 17.4014L15.6972 10.8702Z" fill="#373E9F"/>
<path d="M22.0099 19.6758L17.4474 19.6758L14.6885 20.6669L15.5724 21.5507L22.0099 21.5507L22.0099 19.6758Z" fill="#373E9F"/>
<path d="M13.8194 19.6758L13.8194 21.5507L15.6943 21.5507L17.5693 19.6758L13.8194 19.6758Z" fill="#3857BC"/>
</svg>
