<svg width="16" height="15" viewBox="0 0 16 15" fill="none" xmlns="http://www.w3.org/2000/svg">
<g clip-path="url(#clip0_37_752)">
<path d="M9.91016 12.5H3.66016C2.83166 12.499 2.03738 12.1694 1.45154 11.5836C0.865707 10.9978 0.536149 10.2035 0.535156 9.375L0.535156 3.125C0.536149 2.2965 0.865707 1.50222 1.45154 0.916387C2.03738 0.330551 2.83166 0.000992411 3.66016 0L9.91016 0C10.7387 0.000992411 11.5329 0.330551 12.1188 0.916387C12.7046 1.50222 13.0342 2.2965 13.0352 3.125V9.375C13.0342 10.2035 12.7046 10.9978 12.1188 11.5836C11.5329 12.1694 10.7387 12.499 9.91016 12.5ZM3.66016 1.25C3.16288 1.25 2.68596 1.44754 2.33433 1.79917C1.9827 2.15081 1.78516 2.62772 1.78516 3.125V9.375C1.78516 9.87228 1.9827 10.3492 2.33433 10.7008C2.68596 11.0525 3.16288 11.25 3.66016 11.25H9.91016C10.4074 11.25 10.8844 11.0525 11.236 10.7008C11.5876 10.3492 11.7852 9.87228 11.7852 9.375V3.125C11.7852 2.62772 11.5876 2.15081 11.236 1.79917C10.8844 1.44754 10.4074 1.25 9.91016 1.25H3.66016ZM15.5352 11.875V3.75C15.5352 3.58424 15.4693 3.42527 15.3521 3.30806C15.2349 3.19085 15.0759 3.125 14.9102 3.125C14.7444 3.125 14.5854 3.19085 14.4682 3.30806C14.351 3.42527 14.2852 3.58424 14.2852 3.75V11.875C14.2852 12.3723 14.0876 12.8492 13.736 13.2008C13.3844 13.5525 12.9074 13.75 12.4102 13.75H4.28516C4.1194 13.75 3.96042 13.8158 3.84321 13.9331C3.726 14.0503 3.66016 14.2092 3.66016 14.375C3.66016 14.5408 3.726 14.6997 3.84321 14.8169C3.96042 14.9342 4.1194 15 4.28516 15H12.4102C13.2387 14.999 14.0329 14.6694 14.6188 14.0836C15.2046 13.4978 15.5342 12.7035 15.5352 11.875Z" fill="#1AA483"/>
</g>
<defs>
<clipPath id="clip0_37_752">
<rect width="15" height="15" fill="white" transform="translate(0.535156)"/>
</clipPath>
</defs>
</svg>
