<svg width="21" height="22" viewBox="0 0 21 22" fill="none" xmlns="http://www.w3.org/2000/svg">
<path d="M5.64128 15.6665H3.30794C2.6891 15.6665 2.09561 15.4207 1.65803 14.9831C1.22044 14.5455 0.974609 13.952 0.974609 13.3332V3.99984C0.974609 3.381 1.22044 2.78751 1.65803 2.34992C2.09561 1.91234 2.6891 1.6665 3.30794 1.6665H12.6413C13.2601 1.6665 13.8536 1.91234 14.2912 2.34992C14.7288 2.78751 14.9746 3.381 14.9746 3.99984V6.33317M7.97461 20.3332H17.3079C17.9268 20.3332 18.5203 20.0873 18.9579 19.6498C19.3954 19.2122 19.6413 18.6187 19.6413 17.9998V8.6665C19.6413 8.04767 19.3954 7.45417 18.9579 7.01659C18.5203 6.579 17.9268 6.33317 17.3079 6.33317H7.97461C7.35577 6.33317 6.76228 6.579 6.32469 7.01659C5.88711 7.45417 5.64128 8.04767 5.64128 8.6665V17.9998C5.64128 18.6187 5.88711 19.2122 6.32469 19.6498C6.76228 20.0873 7.35577 20.3332 7.97461 20.3332Z" stroke="#1AA483" stroke-width="1.5" stroke-linecap="round" stroke-linejoin="round"/>
</svg>
