<svg width="11" height="6" viewBox="0 0 11 6" fill="none" xmlns="http://www.w3.org/2000/svg">
<path d="M5.04194 5.84817C5.07677 5.88309 5.11815 5.9108 5.16371 5.9297C5.20927 5.94861 5.25811 5.95834 5.30744 5.95834C5.35676 5.95834 5.4056 5.94861 5.45116 5.9297C5.49672 5.9108 5.5381 5.88309 5.57294 5.84817L10.1979 1.26017C10.2329 1.22534 10.2606 1.18395 10.2795 1.1384C10.2984 1.09284 10.3081 1.044 10.3081 0.99467C10.3081 0.945345 10.2984 0.896504 10.2795 0.850945C10.2606 0.805386 10.2329 0.764005 10.1979 0.72917L9.57894 0.11017C9.5441 0.0752479 9.50272 0.0475408 9.45716 0.0286359C9.4116 0.0097311 9.36276 0 9.31344 0C9.26411 0 9.21527 0.0097311 9.16971 0.0286359C9.12415 0.0475408 9.08277 0.0752479 9.04794 0.11017L5.30794 3.81317L1.56693 0.11017C1.5321 0.0752479 1.49072 0.0475408 1.44516 0.0286359C1.3996 0.0097311 1.35076 0 1.30143 0C1.25211 0 1.20327 0.0097311 1.15771 0.0286359C1.11215 0.0475408 1.07077 0.0752479 1.03593 0.11017L0.416935 0.72917C0.382012 0.764005 0.354305 0.805386 0.335401 0.850945C0.316496 0.896504 0.306765 0.945345 0.306765 0.99467C0.306765 1.044 0.316496 1.09284 0.335401 1.1384C0.354305 1.18395 0.382012 1.22534 0.416935 1.26017L5.04194 5.84817Z" fill="#353535" fill-opacity="0.5"/>
</svg>
