<svg width="16" height="16" viewBox="0 0 16 16" fill="none" xmlns="http://www.w3.org/2000/svg">
<path d="M10.8395 3.94222L12.4883 5.59097M11.5508 9.88785V12.8566C11.5508 13.2296 11.4026 13.5872 11.1389 13.851C10.8752 14.1147 10.5175 14.2629 10.1445 14.2629H3.58203C3.20907 14.2629 2.85139 14.1147 2.58766 13.851C2.32394 13.5872 2.17578 13.2296 2.17578 12.8566V6.2941C2.17578 5.92114 2.32394 5.56345 2.58766 5.29973C2.85139 5.03601 3.20907 4.88785 3.58203 4.88785H6.55078M10.8395 3.94222L11.8939 2.88722C12.1137 2.66743 12.4118 2.54395 12.7227 2.54395C13.0335 2.54395 13.3316 2.66743 13.5514 2.88722C13.7712 3.10702 13.8947 3.40513 13.8947 3.71597C13.8947 4.02682 13.7712 4.32493 13.5514 4.54472L6.91453 11.1816C6.58411 11.5118 6.17664 11.7546 5.72891 11.8879L4.05078 12.3878L4.55078 10.7097C4.68408 10.262 4.9268 9.85452 5.25703 9.5241L10.8395 3.94222V3.94222Z" stroke="#1AA483" stroke-width="1.25" stroke-linecap="round" stroke-linejoin="round"/>
</svg>
