<svg width="16" height="16" viewBox="0 0 16 16" fill="none" xmlns="http://www.w3.org/2000/svg">
<g clip-path="url(#clip0_37_772)">
<path d="M8.03516 0.902832C6.5518 0.902832 5.10175 1.3427 3.86838 2.16681C2.63501 2.99092 1.67372 4.16226 1.10606 5.53271C0.538406 6.90315 0.389881 8.41115 0.67927 9.86601C0.968659 11.3209 1.68296 12.6572 2.73186 13.7061C3.78075 14.755 5.11713 15.4693 6.57198 15.7587C8.02684 16.0481 9.53484 15.8996 10.9053 15.3319C12.2757 14.7643 13.4471 13.803 14.2712 12.5696C15.0953 11.3362 15.5352 9.88619 15.5352 8.40283C15.533 6.41437 14.7421 4.50796 13.3361 3.10191C11.93 1.69585 10.0236 0.904983 8.03516 0.902832V0.902832ZM8.03516 14.6528C6.79903 14.6528 5.59065 14.2863 4.56285 13.5995C3.53504 12.9128 2.73396 11.9366 2.26091 10.7946C1.78786 9.65257 1.66409 8.3959 1.90525 7.18352C2.14641 5.97114 2.74166 4.85749 3.61574 3.98341C4.48982 3.10934 5.60346 2.51408 6.81585 2.27292C8.02823 2.03177 9.28489 2.15554 10.4269 2.62859C11.569 3.10163 12.5451 3.90271 13.2318 4.93052C13.9186 5.95833 14.2852 7.1667 14.2852 8.40283C14.2833 10.0599 13.6243 11.6485 12.4526 12.8202C11.2809 13.9919 9.6922 14.651 8.03516 14.6528Z" fill="#1AA483"/>
<path d="M8.03516 4.02783C7.8694 4.02783 7.71042 4.09368 7.59321 4.21089C7.476 4.3281 7.41016 4.48707 7.41016 4.65283V9.65283C7.41016 9.81859 7.476 9.97756 7.59321 10.0948C7.71042 10.212 7.8694 10.2778 8.03516 10.2778C8.20092 10.2778 8.35989 10.212 8.4771 10.0948C8.59431 9.97756 8.66016 9.81859 8.66016 9.65283V4.65283C8.66016 4.48707 8.59431 4.3281 8.4771 4.21089C8.35989 4.09368 8.20092 4.02783 8.03516 4.02783Z" fill="#1AA483"/>
<path d="M8.66016 12.1528C8.66016 11.8077 8.38033 11.5278 8.03516 11.5278C7.68998 11.5278 7.41016 11.8077 7.41016 12.1528C7.41016 12.498 7.68998 12.7778 8.03516 12.7778C8.38033 12.7778 8.66016 12.498 8.66016 12.1528Z" fill="#1AA483"/>
</g>
<defs>
<clipPath id="clip0_37_772">
<rect width="15" height="15" fill="white" transform="translate(0.535156 0.902832)"/>
</clipPath>
</defs>
</svg>
