<svg width="29" height="28" viewBox="0 0 29 28" fill="none" xmlns="http://www.w3.org/2000/svg">
<path d="M0.306641 14C0.306641 21.732 6.57465 28 14.3066 28C22.0386 28 28.3066 21.732 28.3066 14C28.3066 6.26801 22.0386 0 14.3066 0C6.57465 0 0.306641 6.26801 0.306641 14Z" fill="#1877F2"/>
<path d="M21.3066 14C21.3066 10.15 18.1566 7 14.3066 7C10.4566 7 7.30664 10.15 7.30664 14C7.30664 17.5 9.84414 20.3875 13.1691 20.9125V16.0125H11.4191V14H13.1691V12.425C13.1691 10.675 14.2191 9.7125 15.7941 9.7125C16.5816 9.7125 17.3691 9.8875 17.3691 9.8875V11.6375H16.4941C15.6191 11.6375 15.3566 12.1625 15.3566 12.6875V14H17.2816L16.9316 16.0125H15.2691V21C18.7691 20.475 21.3066 17.5 21.3066 14Z" fill="white"/>
</svg>
