<svg width="33" height="33" viewBox="0 0 33 33" fill="none" xmlns="http://www.w3.org/2000/svg">
<g clip-path="url(#clip0_15_271)">
<path d="M32.6127 18.303C32.5746 17.9519 32.3473 17.6605 32.0194 17.5426C30.2386 16.9022 28.2605 17.0486 26.5877 17.9472L20.4451 21.5306L20.4205 21.5483C19.9933 21.9224 19.4629 22.1284 18.9268 22.1284H13.7247V20.8592H18.9268C19.6914 20.8592 20.1141 19.9395 20.1141 19.3037C20.1141 18.4708 19.5968 17.7732 18.9566 17.7487L13.4877 17.6875C11.4907 17.6657 10.2838 16.516 8.26113 17.5526C6.28773 18.5641 5.42004 20.8527 5.20117 21.5301L5.18359 21.5845L7.83836 28.2451H17.7703L32.1947 19.1758C32.4907 18.9898 32.6509 18.6553 32.6127 18.303Z" fill="#F9D298"/>
<path d="M8.84461 29.7857L5.97774 31.3497C5.4254 31.651 4.73323 31.4337 4.45227 30.8707L0.736234 23.4257C0.469362 22.891 0.673465 22.2411 1.19805 21.9549L4.06492 20.3909C4.61726 20.0895 5.30943 20.3068 5.59039 20.8698L9.30642 28.3148C9.57329 28.8495 9.36919 29.4995 8.84461 29.7857Z" fill="#4C97E3"/>
<path d="M20.7135 4.77799C17.8341 -1.71883 6.66516 6.08049 20.6668 15.1118L20.6595 15.0788C35.3397 6.04746 23.116 -1.51411 20.7135 4.77799Z" fill="#FF2459"/>
</g>
<defs>
<clipPath id="clip0_15_271">
<rect width="32" height="32" fill="white" transform="translate(0.619141 0.932739)"/>
</clipPath>
</defs>
</svg>
