<svg width="20" height="21" viewBox="0 0 20 21" fill="none" xmlns="http://www.w3.org/2000/svg">
    <path
        d="M10.8091 10.8262C11.6755 10.353 12.8618 9.70505 13.6465 8.56485C14.6702 7.08422 14.8172 5.1031 14.0301 3.39491C13.2164 1.62894 11.5567 0.493618 9.47637 0.280233C7.24224 0.0506885 4.92953 0.854425 3.13324 2.48448C1.0835 4.34452 -0.0365491 7.03331 -0.0208329 10.0557C0.00506552 14.9733 3.96443 18.9331 7.2252 18.9331C9.01573 18.9331 9.82057 18.2365 10.1803 17.6519C10.6735 16.8506 10.6533 15.7491 10.1298 14.7121C9.06332 12.5264 9.3544 11.9848 9.96069 11.3528C10.0891 11.2198 10.4552 11.0197 10.8091 10.8262ZM9.1388 15.2044C9.41085 15.7434 9.57952 16.517 9.23775 17.0722C8.85414 17.6957 7.93176 17.8265 7.22542 17.8265C4.4804 17.8265 1.10807 14.2382 1.08616 10.0499C1.07177 7.34608 2.06322 4.95058 3.87721 3.30437C5.4413 1.88505 7.43969 1.18424 9.3637 1.38147C11.0449 1.5539 12.3792 2.45681 13.0251 3.8582C13.6398 5.1923 13.5265 6.79269 12.7354 7.93665C12.0999 8.86014 11.0898 9.41198 10.2786 9.85513C9.79246 10.1208 9.40841 10.3304 9.16227 10.5871C8.0338 11.7632 8.02716 12.9269 9.1388 15.2044Z"
        fill="#5D646F" />
    <path
        d="M5.8936 12.8071C5.03342 12.8071 4.3335 13.5071 4.3335 14.367C4.3335 15.2272 5.03342 15.9269 5.8936 15.9269C6.75378 15.9269 7.45348 15.227 7.45348 14.367C7.45348 13.5071 6.75378 12.8071 5.8936 12.8071ZM5.8936 15.0725C5.50468 15.0725 5.18837 14.7562 5.18837 14.3672C5.18837 13.9783 5.5049 13.662 5.8936 13.662C6.28252 13.662 6.59883 13.9783 6.59883 14.3672C6.59883 14.7559 6.28252 15.0725 5.8936 15.0725Z"
        fill="#5D646F" />
    <path
        d="M7.15687 9.97137C7.15687 8.71695 6.13643 7.69629 4.88179 7.69629C3.62738 7.69629 2.60693 8.71695 2.60693 9.97137C2.60693 11.2258 3.62738 12.2464 4.88179 12.2464C6.13643 12.2464 7.15687 11.2258 7.15687 9.97137ZM3.7137 9.97137C3.7137 9.32701 4.23765 8.80306 4.88179 8.80306C5.52593 8.80306 6.0501 9.32723 6.0501 9.97137C6.0501 10.6155 5.52593 11.1397 4.88179 11.1397C4.23765 11.1397 3.7137 10.6155 3.7137 9.97137Z"
        fill="#5D646F" />
    <path
        d="M11.7398 5.68508C11.7398 4.14202 10.4845 2.88672 8.94143 2.88672C7.39837 2.88672 6.14307 4.14202 6.14307 5.68508C6.14307 7.22814 7.39837 8.48344 8.94143 8.48344C10.4845 8.48344 11.7398 7.22814 11.7398 5.68508ZM8.94165 7.37667C8.00886 7.37667 7.25006 6.61787 7.25006 5.68508C7.25006 4.75251 8.00886 3.99349 8.94165 3.99349C9.87443 3.99349 10.6332 4.75229 10.6332 5.68508C10.633 6.61787 9.87443 7.37667 8.94165 7.37667Z"
        fill="#5D646F" />
    <path
        d="M19.753 6.57292C19.9279 6.03724 19.6711 5.45508 19.1576 5.22266C19.0115 5.15404 18.8543 5.12305 18.7016 5.12305C18.3231 5.12305 17.9556 5.31784 17.7498 5.66315C17.6103 5.89779 13.1354 13.7831 13.1343 13.7851C12.7244 13.9757 12.3594 14.2663 12.0953 14.6375C11.6566 15.2546 11.5481 15.9853 11.7903 16.6946C12.2086 17.9235 11.4768 19.2264 11.4454 19.2813C11.3371 19.471 11.3504 19.7067 11.4795 19.8829C11.5851 20.027 11.7517 20.1092 11.9259 20.1092C11.9649 20.1092 12.0043 20.1052 12.0433 20.0966C12.0583 20.0932 13.6988 19.6906 14.7086 19.1348C14.7212 19.1279 14.7336 19.1204 14.7458 19.1124C16.0119 18.2795 16.7141 17.3606 16.8327 16.3816C16.877 16.0168 16.8354 15.6549 16.7156 15.3129C16.7158 15.3124 16.7158 15.3122 16.716 15.3118C17.6192 13.0539 19.6689 6.8319 19.753 6.57292ZM15.7339 16.2483C15.6578 16.8763 15.1123 17.5426 14.1561 18.1756C13.7838 18.3777 13.2932 18.5623 12.8565 18.7067C13.0336 18.0561 13.1312 17.2001 12.8379 16.3375C12.6788 15.8713 12.8366 15.5046 12.9971 15.279C13.2696 14.8958 13.6822 14.6444 14.2088 14.6444C14.7351 14.6444 15.1002 14.877 15.3421 15.1451C15.584 15.4129 15.7977 15.7246 15.7339 16.2483ZM15.9654 14.2087C15.6622 13.9358 15.3155 13.741 14.9961 13.6702C14.8319 13.6113 14.6597 13.573 14.485 13.5533C15.7653 11.1616 18.6031 6.39384 18.6994 6.23424C18.6421 6.41044 16.9237 11.668 15.9654 14.2087Z"
        fill="#5D646F" />
</svg>
