<svg width="16" height="16" viewBox="0 0 16 16" fill="none" xmlns="http://www.w3.org/2000/svg">
    <g clip-path="url(#clip0_63_8562)">
        <path fill-rule="evenodd" clip-rule="evenodd"
            d="M10.8056 9.17231C10.8056 9.49093 10.5456 9.74923 10.2249 9.74923H5.84541C5.52473 9.74923 5.26476 9.49093 5.26476 9.17231C5.26476 8.85368 5.52473 8.59538 5.84541 8.59538H10.2249C10.5456 8.59538 10.8056 8.85368 10.8056 9.17231Z"
            fill="#1AA483" />
        <path fill-rule="evenodd" clip-rule="evenodd"
            d="M8.03516 6.41967C8.35584 6.41967 8.6158 6.67797 8.6158 6.99659V11.348C8.6158 11.6666 8.35584 11.9249 8.03516 11.9249C7.71447 11.9249 7.45451 11.6666 7.45451 11.348V6.99659C7.45451 6.67797 7.71447 6.41967 8.03516 6.41967Z"
            fill="#1AA483" />
        <path fill-rule="evenodd" clip-rule="evenodd"
            d="M5.76139 1.55323C6.00223 1.1614 6.42465 0.903076 6.9011 0.903076H9.16921C9.64566 0.903076 10.0681 1.1614 10.3089 1.55323L10.7337 2.24426C11.1533 2.27689 11.5512 2.312 11.8986 2.34468C12.91 2.43984 13.698 3.24126 13.7774 4.24447C13.884 5.59272 14.0352 7.78605 14.0352 9.41136C14.0352 10.9453 13.9008 12.6868 13.7958 13.8151C13.7039 14.803 12.921 15.5785 11.9293 15.6722C10.8517 15.774 9.25 15.9031 8.03516 15.9031C6.82031 15.9031 5.21859 15.774 4.14099 15.6722C3.14926 15.5785 2.36644 14.803 2.27453 13.8151C2.16956 12.6868 2.03516 10.9453 2.03516 9.41136C2.03516 7.78605 2.18627 5.59272 2.29295 4.24447C2.37233 3.24126 3.16034 2.43984 4.17175 2.34468C4.5191 2.312 4.91703 2.27689 5.33665 2.24426L5.76139 1.55323ZM5.05346 3.42475C4.77888 3.44767 4.51831 3.47109 4.28122 3.49339C3.83471 3.5354 3.48607 3.88754 3.45067 4.3349C3.34404 5.68247 3.19645 7.83578 3.19645 9.41136C3.19645 10.8912 3.32685 12.5906 3.43089 13.7089C3.47121 14.1423 3.81243 14.4821 4.25092 14.5235C5.32595 14.6251 6.88004 14.7492 8.03516 14.7492C9.19027 14.7492 10.7444 14.6251 11.8194 14.5235C12.2579 14.4821 12.5991 14.1423 12.6394 13.7089C12.7435 12.5906 12.8739 10.8912 12.8739 9.41136C12.8739 7.83578 12.7263 5.68247 12.6196 4.3349C12.5842 3.88754 12.2356 3.5354 11.7891 3.49339C11.552 3.47109 11.2914 3.44767 11.0168 3.42475C10.9866 3.5883 10.9293 3.74438 10.8492 3.88514C10.6305 4.26978 10.217 4.57607 9.68534 4.57607H6.38498C5.85329 4.57607 5.43984 4.26978 5.22109 3.88514C5.14103 3.74438 5.08372 3.5883 5.05346 3.42475ZM6.9011 2.05692C6.85985 2.05692 6.79882 2.07923 6.75248 2.15462L6.23635 2.99433C6.22875 3.0067 6.22229 3.019 6.21684 3.03118C6.17521 3.12407 6.18384 3.23259 6.23213 3.3175C6.2782 3.39851 6.33563 3.42222 6.38498 3.42222H9.68534C9.73468 3.42222 9.79211 3.39851 9.83818 3.3175C9.88647 3.23259 9.8951 3.12407 9.85348 3.03118C9.84802 3.019 9.84156 3.0067 9.83396 2.99433L9.31783 2.15462C9.2715 2.07923 9.21046 2.05692 9.16921 2.05692H6.9011Z"
            fill="#1AA483" />
    </g>
    <defs>
        <clipPath id="clip0_63_8562">
            <rect width="15" height="15" fill="white" transform="translate(0.535156 0.903076)" />
        </clipPath>
    </defs>
</svg>
