<svg width="24" height="24" viewBox="0 0 24 24" fill="none" xmlns="http://www.w3.org/2000/svg">
    <path
        d="M20.5852 12.2565C20.5852 15.7436 20.0756 21.077 20.0756 21.2821C20.0756 21.4872 19.8718 21.7949 19.668 21.8975C19.5661 22 19.4642 22 19.2603 22C19.1584 22 19.0565 22 18.8527 21.8975L12.6361 18.6154C12.5342 18.6154 12.4323 18.6154 12.4323 18.6154L6.21575 21.8975C6.01193 22 5.70619 22 5.50237 21.8975C5.29855 21.7949 5.09473 21.5898 5.09473 21.2821C5.09473 21.077 4.58517 15.7436 4.58517 12.2565C4.68709 10 4.89091 7.02569 5.09473 4.87184C5.19664 3.53851 6.21575 2.51287 7.54059 2.30774C8.96734 2.20517 11.0056 2.00005 12.6361 2.00005C14.2667 2.00005 16.3049 2.20517 17.7317 2.30774C19.0565 2.4103 20.0756 3.53851 20.1775 4.87184C20.3814 7.02569 20.5852 10 20.5852 12.2565Z"
        fill="#FFFFFF" />
</svg>
