<svg width="24" height="24" viewBox="0 0 24 24" fill="none" xmlns="http://www.w3.org/2000/svg">
    <path
        d="M21.6764 3.05699C21.1581 2.62458 20.5501 2.31302 19.8964 2.14492C19.2427 1.97682 18.5598 1.9564 17.8972 2.08515L16.2936 2.47789C15.4567 2.63125 14.7001 3.0732 14.1554 3.72684C13.6107 4.38047 13.3125 5.20439 13.3126 6.05521V20.1163C12.7098 20.2045 12.0973 20.2045 11.4944 20.1163V6.05521C11.4974 5.21224 11.2061 4.39465 10.6707 3.74355C10.1352 3.09244 9.38932 2.64866 8.56163 2.4888L6.85797 2.07424C6.20265 1.95433 5.52898 1.97992 4.88464 2.14922C4.24031 2.31852 3.64107 2.62738 3.12933 3.05394C2.6176 3.48051 2.20588 4.01434 1.92333 4.61765C1.64078 5.22097 1.49429 5.87902 1.49425 6.54522C1.22198 9.81021 1.22198 13.0922 1.49425 16.3572C1.4943 17.4216 1.86787 18.4522 2.54984 19.2694C3.23181 20.0866 4.17894 20.6386 5.22613 20.8291L10.9408 21.8682C11.908 22.0439 12.899 22.0439 13.8663 21.8682L19.5854 20.8291C20.6318 20.6376 21.5779 20.0852 22.2589 19.2681C22.94 18.451 23.3129 17.4209 23.3128 16.3572C23.6073 13.141 23.6115 9.90487 23.3255 6.68794L23.3128 6.54522C23.3132 5.87925 23.1668 5.22138 22.8839 4.61846C22.6011 4.01553 22.1888 3.48239 21.6764 3.05699Z"
        fill="#FFFFFF" />
</svg>
