<?xml version="1.0" encoding="UTF-8"?>
<svg width="24" height="24" viewBox="0 0 16 19" fill="none" xmlns="http://www.w3.org/2000/svg">
    <path fill-rule="evenodd" clip-rule="evenodd"
        d="M3.28534 0.612346C4.60127 0.488133 6.53171 0.333252 8.00008 0.333252C9.46845 0.333252 11.3989 0.488133 12.7148 0.612346C13.9562 0.729528 14.92 1.71755 15.0124 2.94738C15.1431 4.68667 15.3334 7.58211 15.3334 9.71688C15.3334 11.3534 15.2217 13.4338 15.1111 15.0948C15.0556 15.9275 15.0002 16.6588 14.9586 17.1821C14.9378 17.4438 14.9205 17.6536 14.9083 17.7982L14.8942 17.9644L14.8892 18.0218L14.8892 18.0227C14.8891 18.0228 14.8891 18.0228 14.1822 17.9615L14.8892 18.0227C14.8684 18.259 14.7295 18.4691 14.5196 18.5818C14.3096 18.6945 14.0567 18.6949 13.8465 18.5827L8.11198 15.5236C8.0421 15.4864 7.95806 15.4864 7.88818 15.5236L2.1537 18.5827C1.94345 18.6949 1.69054 18.6945 1.4806 18.5818C1.27066 18.4691 1.1318 18.2591 1.11102 18.0228L1.818 17.9615C1.11102 18.0228 1.11102 18.0229 1.11102 18.0228L1.10595 17.9644L1.09182 17.7982C1.07966 17.6536 1.06232 17.4438 1.04153 17.1821C0.999952 16.6588 0.944523 15.9275 0.889084 15.0948C0.778499 13.4338 0.666748 11.3534 0.666748 9.71688C0.666748 7.58211 0.857075 4.68667 0.987769 2.94738C1.08018 1.71755 2.04391 0.729528 3.28534 0.612346ZM2.43756 16.8306L7.21679 14.2811C7.70596 14.0202 8.2942 14.0202 8.78337 14.2811L13.5626 16.8306C13.601 16.3381 13.6479 15.7064 13.6948 15.0017C13.805 13.3464 13.9141 11.3045 13.9141 9.71688C13.9141 7.63999 13.7276 4.79124 13.597 3.05238C13.5556 2.50208 13.1277 2.06792 12.5806 2.01628C11.2681 1.89239 9.39566 1.74351 8.00008 1.74351C6.6045 1.74351 4.73204 1.89239 3.41958 2.01628C2.87247 2.06792 2.44454 2.50208 2.40318 3.05238C2.27252 4.79124 2.0861 7.63999 2.0861 9.71688C2.0861 11.3045 2.19514 13.3464 2.30534 15.0017C2.35226 15.7064 2.39919 16.3381 2.43756 16.8306Z"
        fill="#FFFFFF" />
</svg>
