<?xml version="1.0" encoding="UTF-8"?>
<svg width="24" height="24" viewBox="0 0 25 24" fill="none" xmlns="http://www.w3.org/2000/svg">
    <path
        d="M21.7673 3.05699C21.2562 2.62964 20.6573 2.32006 20.0131 2.15021C19.369 1.98037 18.6953 1.95443 18.04 2.07424L14.5654 2.70516C13.7632 2.85248 13.0338 3.2652 12.4944 3.877C11.9536 3.26414 11.2222 2.85133 10.418 2.70516L6.94888 2.07424C6.29356 1.95433 5.61989 1.97992 4.97555 2.14922C4.33122 2.31852 3.73198 2.62738 3.22024 3.05394C2.70851 3.48051 2.29679 4.01434 2.01424 4.61765C1.73169 5.22097 1.5852 5.87902 1.58516 6.54522C1.25271 9.50727 1.22476 12.4956 1.50174 15.4634L1.58516 16.3572C1.58521 17.4216 1.95878 18.4522 2.64075 19.2694C3.32272 20.0866 4.26985 20.6386 5.31703 20.8291L11.0317 21.8682C11.9989 22.0439 12.9899 22.0439 13.9572 21.8682L19.6763 20.8291C20.7227 20.6376 21.6688 20.0852 22.3498 19.2681C23.0309 18.451 23.4038 17.4209 23.4037 16.3572C23.7359 13.1274 23.7392 9.87225 23.4134 6.64181L23.4037 6.54522C23.4041 5.87925 23.2577 5.22138 22.9748 4.61846C22.692 4.01553 22.2797 3.48239 21.7673 3.05699ZM11.5853 20.1163C11.5089 20.1054 11.4326 20.0927 11.3562 20.0791L5.64249 19.0409C5.01409 18.9265 4.44574 18.5953 4.03655 18.1048C3.62736 17.6144 3.40327 16.9959 3.40337 16.3572L3.31995 15.4634C3.04297 12.4956 3.07092 9.50727 3.40337 6.54522C3.40337 5.82189 3.69071 5.12819 4.20218 4.61672C4.71365 4.10525 5.40735 3.81791 6.13068 3.81791C6.29531 3.8183 6.45959 3.83321 6.6216 3.86245L10.0944 4.49883C10.5122 4.57528 10.8901 4.79562 11.1624 5.1216C11.4348 5.44758 11.5844 5.85863 11.5853 6.2834V20.1163ZM21.5855 16.3572C21.5856 16.9959 21.3615 17.6144 20.9523 18.1048C20.5431 18.5953 19.9748 18.9265 19.3463 19.0409L13.6326 20.0791C13.5563 20.0927 13.4799 20.1054 13.4035 20.1163V6.2834C13.4035 5.85759 13.5528 5.44525 13.8256 5.1183C14.0984 4.79134 14.4773 4.5705 14.8963 4.49428L18.37 3.85791C18.7634 3.78633 19.1677 3.80214 19.5543 3.90419C19.9409 4.00625 20.3003 4.19206 20.6071 4.44847C20.9139 4.70488 21.1606 5.02561 21.3297 5.38795C21.4987 5.75029 21.5861 6.14538 21.5855 6.54522L21.5952 6.64181C21.921 9.87225 21.9177 13.1274 21.5855 16.3572Z"
        fill="#FFFFFF" />
</svg>
