<svg width="20" height="21" viewBox="0 0 20 21" fill="none" xmlns="http://www.w3.org/2000/svg">
    <g clip-path="url(#clip0_81_9828)">
        <path
            d="M14.146 11.5978C14.146 11.8189 14.0582 12.0308 13.9019 12.1871C13.7456 12.3434 13.5337 12.4312 13.3127 12.4312H6.646C6.42498 12.4312 6.21302 12.3434 6.05674 12.1871C5.90046 12.0308 5.81266 11.8189 5.81266 11.5978C5.81266 11.3768 5.90046 11.1649 6.05674 11.0086C6.21302 10.8523 6.42498 10.7645 6.646 10.7645H13.3127C13.5337 10.7645 13.7456 10.8523 13.9019 11.0086C14.0582 11.1649 14.146 11.3768 14.146 11.5978ZM10.8127 14.0978H6.646C6.42498 14.0978 6.21302 14.1856 6.05674 14.3419C5.90046 14.4982 5.81266 14.7102 5.81266 14.9312C5.81266 15.1522 5.90046 15.3641 6.05674 15.5204C6.21302 15.6767 6.42498 15.7645 6.646 15.7645H10.8127C11.0337 15.7645 11.2456 15.6767 11.4019 15.5204C11.5582 15.3641 11.646 15.1522 11.646 14.9312C11.646 14.7102 11.5582 14.4982 11.4019 14.3419C11.2456 14.1856 11.0337 14.0978 10.8127 14.0978ZM18.3127 8.66867V15.7645C18.3113 16.8692 17.8719 17.9282 17.0908 18.7093C16.3097 19.4904 15.2507 19.9298 14.146 19.9312H5.81266C4.708 19.9298 3.64896 19.4904 2.86785 18.7093C2.08673 17.9282 1.64732 16.8692 1.646 15.7645V4.09784C1.64732 2.99318 2.08673 1.93414 2.86785 1.15302C3.64896 0.371906 4.708 -0.0675052 5.81266 -0.0688284H9.57516C10.3415 -0.0708009 11.1006 0.0791613 11.8087 0.372388C12.5167 0.665614 13.1596 1.09629 13.7002 1.6395L16.6035 4.5445C17.147 5.0847 17.578 5.72739 17.8714 6.43532C18.1647 7.14325 18.3147 7.90236 18.3127 8.66867ZM12.5218 2.81784C12.2596 2.56381 11.9651 2.34527 11.646 2.16784V5.7645C11.646 5.98552 11.7338 6.19748 11.8901 6.35376C12.0464 6.51004 12.2583 6.59784 12.4793 6.59784H16.076C15.8985 6.27883 15.6796 5.98463 15.4252 5.72284L12.5218 2.81784ZM16.646 8.66867C16.646 8.53117 16.6193 8.3995 16.6068 8.2645H12.4793C11.8163 8.2645 11.1804 8.00111 10.7116 7.53227C10.2427 7.06343 9.97933 6.42755 9.97933 5.7645V1.637C9.84433 1.6245 9.71183 1.59784 9.57516 1.59784H5.81266C5.14962 1.59784 4.51374 1.86123 4.0449 2.33007C3.57605 2.79891 3.31266 3.4348 3.31266 4.09784V15.7645C3.31266 16.4275 3.57605 17.0634 4.0449 17.5323C4.51374 18.0011 5.14962 18.2645 5.81266 18.2645H14.146C14.809 18.2645 15.4449 18.0011 15.9138 17.5323C16.3826 17.0634 16.646 16.4275 16.646 15.7645V8.66867Z"
            fill="#FFFFFF" />
    </g>
    <defs>
        <clipPath id="clip0_81_9828">
            <rect width="20" height="20" fill="white" transform="translate(0 0.876465)" />
        </clipPath>
    </defs>
</svg>
