<svg width="16" height="16" viewBox="0 0 16 16" fill="none" xmlns="http://www.w3.org/2000/svg">
    <g clip-path="url(#clip0_63_8574)">
        <path
            d="M9.91016 13.4031H3.66016C2.83166 13.4021 2.03738 13.0725 1.45154 12.4867C0.865707 11.9009 0.536149 11.1066 0.535156 10.2781L0.535156 4.02808C0.536149 3.19958 0.865707 2.4053 1.45154 1.81946C2.03738 1.23363 2.83166 0.904069 3.66016 0.903076L9.91016 0.903076C10.7387 0.904069 11.5329 1.23363 12.1188 1.81946C12.7046 2.4053 13.0342 3.19958 13.0352 4.02808V10.2781C13.0342 11.1066 12.7046 11.9009 12.1188 12.4867C11.5329 13.0725 10.7387 13.4021 9.91016 13.4031ZM3.66016 2.15308C3.16288 2.15308 2.68596 2.35062 2.33433 2.70225C1.9827 3.05388 1.78516 3.5308 1.78516 4.02808V10.2781C1.78516 10.7754 1.9827 11.2523 2.33433 11.6039C2.68596 11.9555 3.16288 12.1531 3.66016 12.1531H9.91016C10.4074 12.1531 10.8844 11.9555 11.236 11.6039C11.5876 11.2523 11.7852 10.7754 11.7852 10.2781V4.02808C11.7852 3.5308 11.5876 3.05388 11.236 2.70225C10.8844 2.35062 10.4074 2.15308 9.91016 2.15308H3.66016ZM15.5352 12.7781V4.65308C15.5352 4.48732 15.4693 4.32834 15.3521 4.21113C15.2349 4.09392 15.0759 4.02808 14.9102 4.02808C14.7444 4.02808 14.5854 4.09392 14.4682 4.21113C14.351 4.32834 14.2852 4.48732 14.2852 4.65308V12.7781C14.2852 13.2754 14.0876 13.7523 13.736 14.1039C13.3844 14.4555 12.9074 14.6531 12.4102 14.6531H4.28516C4.1194 14.6531 3.96042 14.7189 3.84321 14.8361C3.726 14.9533 3.66016 15.1123 3.66016 15.2781C3.66016 15.4438 3.726 15.6028 3.84321 15.72C3.96042 15.8372 4.1194 15.9031 4.28516 15.9031H12.4102C13.2387 15.9021 14.0329 15.5725 14.6188 14.9867C15.2046 14.4009 15.5342 13.6066 15.5352 12.7781Z"
            fill="#1AA483" />
    </g>
    <defs>
        <clipPath id="clip0_63_8574">
            <rect width="15" height="15" fill="white" transform="translate(0.535156 0.903076)" />
        </clipPath>
    </defs>
</svg>
