<svg width="10" height="6" viewBox="0 0 10 6" fill="none" xmlns="http://www.w3.org/2000/svg">
    <path fill-rule="evenodd" clip-rule="evenodd"
        d="M0.707064 0.488988C0.835997 0.365034 1.0089 0.297301 1.18779 0.300673C1.36668 0.304046 1.5369 0.378248 1.66106 0.506974L5.00006 4.04851L8.33906 0.506974C8.39976 0.440114 8.47326 0.386108 8.55523 0.348156C8.63719 0.310203 8.72594 0.289077 8.81623 0.286029C8.90651 0.282981 8.99649 0.298072 9.08083 0.33041C9.16517 0.362747 9.24216 0.411673 9.30723 0.474287C9.3723 0.536901 9.42413 0.611929 9.45965 0.694926C9.49517 0.777924 9.51366 0.867202 9.51402 0.957469C9.51438 1.04774 9.4966 1.13716 9.46173 1.22043C9.42687 1.30371 9.37564 1.37915 9.31106 1.44227L5.48606 5.48923C5.4231 5.55451 5.34761 5.60643 5.2641 5.6419C5.1806 5.67737 5.0908 5.69564 5.00006 5.69564C4.90933 5.69564 4.81953 5.67737 4.73602 5.6419C4.65252 5.60643 4.57703 5.55451 4.51406 5.48923L0.689064 1.44227C0.565017 1.31344 0.497233 1.14066 0.500609 0.961907C0.503984 0.783156 0.578242 0.613056 0.707064 0.488988Z"
        fill="#FFFFFF" />
</svg>
