<svg width="16" height="15" viewBox="0 0 16 15" fill="none" xmlns="http://www.w3.org/2000/svg">
    <path
        d="M9.74766 5.62533L9.53141 11.2503M6.53891 11.2503L6.32266 5.62533M12.5527 3.61908C12.7664 3.65158 12.9789 3.68595 13.1914 3.72283M12.5527 3.6197L11.8852 12.296C11.8579 12.6492 11.6983 12.9792 11.4383 13.2199C11.1783 13.4605 10.837 13.5942 10.4827 13.5941H5.58766C5.23334 13.5942 4.89205 13.4605 4.63202 13.2199C4.37199 12.9792 4.2124 12.6492 4.18516 12.296L3.51766 3.61908M12.5527 3.61908C11.8313 3.51002 11.1063 3.42726 10.3789 3.37095M2.87891 3.7222C3.09141 3.68533 3.30391 3.65095 3.51766 3.61908M3.51766 3.61908C4.23899 3.51002 4.96405 3.42726 5.69141 3.37095M10.3789 3.37095V2.79845C10.3789 2.06095 9.81016 1.44595 9.07266 1.42283C8.38117 1.40072 7.68915 1.40072 6.99766 1.42283C6.26016 1.44595 5.69141 2.06158 5.69141 2.79845V3.37095M10.3789 3.37095C8.81873 3.25037 7.25158 3.25037 5.69141 3.37095"
        stroke="#1AA483" stroke-width="1.25" stroke-linecap="round" stroke-linejoin="round" />
</svg>