<svg width="20" height="20" viewBox="0 0 20 20" fill="none" xmlns="http://www.w3.org/2000/svg">
    <path
        d="M17.9649 15.6855V4.1764C18.6911 3.94571 19.2188 3.26528 19.2188 2.46369C19.2188 1.47299 18.4128 0.666992 17.4221 0.666992C16.6729 0.666992 16.0297 1.12805 15.7604 1.78116H4.19813C3.92886 1.12805 3.28563 0.666992 2.53645 0.666992C1.54575 0.666992 0.739746 1.47299 0.739746 2.46373C0.739746 3.26528 1.26743 3.94574 1.99364 4.1764V15.6855C1.26747 15.9162 0.739746 16.5966 0.739746 17.3982C0.739746 18.3889 1.54575 19.1949 2.53648 19.1949C3.33803 19.1949 4.0185 18.6672 4.24919 17.941H15.7094C15.9401 18.6672 16.6206 19.1949 17.4221 19.1949C18.4129 19.1949 19.2189 18.3889 19.2189 17.3982C19.2188 16.5967 18.6911 15.9162 17.9649 15.6855ZM15.7094 16.8554H4.24916C4.07292 16.3006 3.63408 15.8618 3.07926 15.6855V4.1764C3.67986 3.98562 4.14421 3.48703 4.28701 2.86682H15.6715C15.8143 3.48703 16.2787 3.98562 16.8793 4.1764V15.6855C16.3244 15.8618 15.8856 16.3006 15.7094 16.8554ZM17.4221 1.75265C17.8142 1.75265 18.1332 2.07164 18.1332 2.46373C18.1332 2.85582 17.8142 3.17477 17.4221 3.17477C17.03 3.17477 16.7111 2.85578 16.7111 2.46373C16.7111 2.07168 17.03 1.75265 17.4221 1.75265ZM2.53645 1.75265C2.92854 1.75265 3.24749 2.07164 3.24749 2.46373C3.24749 2.85582 2.92854 3.17477 2.53645 3.17477C2.14436 3.17477 1.8254 2.85578 1.8254 2.46373C1.8254 2.07168 2.14439 1.75265 2.53645 1.75265ZM2.53645 18.1092C2.14436 18.1092 1.82537 17.7903 1.82537 17.3982C1.82537 17.0061 2.14436 16.6872 2.53645 16.6872C2.92854 16.6872 3.24749 17.0061 3.24749 17.3982C3.24749 17.7903 2.92854 18.1092 2.53645 18.1092ZM17.4221 18.1092C17.03 18.1092 16.7111 17.7903 16.7111 17.3982C16.7111 17.0061 17.03 16.6872 17.4221 16.6872C17.8142 16.6872 18.1332 17.0061 18.1332 17.3982C18.1332 17.7903 17.8142 18.1092 17.4221 18.1092Z"
        fill="#FFFFFF" stroke="#FFFFFF" stroke-width="0.25" />
    <path d="M7.09814 7.63548H9.24043V13.0678H10.7898V7.63548H12.9321V6.37305H7.09814V7.63548Z"
        fill="#FFFFFF" />
</svg>
