<?xml version="1.0" encoding="UTF-8"?>
<svg width="24" height="24" viewBox="0 0 25 24" fill="none" xmlns="http://www.w3.org/2000/svg">
    <path fill-rule="evenodd" clip-rule="evenodd"
        d="M13.3017 3.79541C12.8686 3.49716 12.3017 3.49716 11.8686 3.79541L4.7285 8.7121C4.39542 8.94146 4.19261 9.31108 4.17762 9.70797C4.12578 11.0799 4.07085 13.4824 4.22173 15.1877C4.33555 16.4742 4.6385 18.1747 4.88458 19.4256C4.99886 20.0066 5.50452 20.4284 6.10551 20.4284H9.42947C9.57108 20.4284 9.68588 20.3111 9.68588 20.1665V15.9754C9.68588 14.9627 10.4895 14.1417 11.4808 14.1417H13.9942C14.9855 14.1417 15.7891 14.9627 15.7891 15.9754V20.1665C15.7891 20.3111 15.9039 20.4284 16.0455 20.4284H19.0648C19.6658 20.4284 20.1714 20.0066 20.2857 19.4256C20.5318 18.1747 20.8347 16.4742 20.9486 15.1877C21.0994 13.4824 21.0445 11.0799 20.9927 9.70797C20.9777 9.31108 20.7749 8.94146 20.4418 8.7121L13.3017 3.79541ZM11.0087 2.49217C11.9615 1.83602 13.2088 1.83602 14.1616 2.49217L21.3017 7.40886C22.0309 7.91098 22.4956 8.73651 22.53 9.64736C22.5818 11.0178 22.6416 13.5119 22.4808 15.3292C22.3589 16.7067 22.0412 18.4786 21.794 19.7353C21.5312 21.0711 20.3775 22.0001 19.0648 22.0001H16.0455C15.0542 22.0001 14.2506 21.1791 14.2506 20.1665V15.9754C14.2506 15.8307 14.1358 15.7134 13.9942 15.7134H11.4808C11.3391 15.7134 11.2243 15.8307 11.2243 15.9754V20.1665C11.2243 21.1791 10.4208 22.0001 9.42947 22.0001H6.10551C4.79275 22.0001 3.63904 21.0711 3.37627 19.7353C3.12906 18.4786 2.81139 16.7067 2.68951 15.3292C2.52872 13.5119 2.58852 11.0178 2.6403 9.64736C2.67471 8.73652 3.13942 7.91098 3.8686 7.40886L11.0087 2.49217Z"
        fill="#FFFFFF" />
</svg>
