<svg width="24" height="24" viewBox="0 0 24 24" fill="none" xmlns="http://www.w3.org/2000/svg">
    <path
        d="M22.4695 15.2984C22.3129 17.0315 22.0611 18.4398 21.7548 19.6963C21.5506 20.9529 20.3254 22 18.9981 22H17.3646C16.4457 22 15.731 21.267 15.731 20.3246V16.0314C15.731 14.9843 14.9142 14.1466 13.8932 14.1466H11.5449C10.5239 14.1466 9.70713 14.9843 9.70713 16.0314V20.3246C9.70713 21.267 8.99244 22 8.07355 22H6.13367C4.80638 22 3.6833 21.0576 3.377 19.6963C3.0707 18.3351 2.80513 17.0327 2.66231 15.2984C2.48104 13.0974 2.66231 11.0052 2.7644 9.64398C2.7644 8.80628 3.2749 7.96859 3.98959 7.44503L11.1365 2.52356C11.5449 2.20942 12.0554 2 12.5659 2C13.0764 2 13.689 2.20942 14.0974 2.52356L21.2443 7.44503C21.959 7.96859 22.4695 8.80628 22.4695 9.64398C22.5716 11.0052 22.6682 13.0993 22.4695 15.2984Z"
        fill="#FFFFFF" />
</svg>
