<?xml version="1.0" encoding="UTF-8"?>
<svg fill="none" viewBox="0 0 33 33" xmlns="http://www.w3.org/2000/svg">
    <g clip-path="url(#a)">
        <path d="m16.619 11.16s-0.799-6.9118-9.2885-10.228v10.228h9.2885z" fill="#F0F5FA" />
        <path d="m16.619 11.16s0.7991-6.9118 9.2886-10.228v10.228h-9.2886z" fill="#E4ECF2" />
        <path
            d="m16.721 11.16c-3.7069-6.6234-12.588-8.6586-12.588-8.6586l-1.7639 1.7924 12.206 8.1202 2.1454-1.254z"
            fill="#E4ECF2" />
        <path
            d="m16.516 11.16c3.7069-6.6234 12.588-8.6586 12.588-8.6586l1.7639 1.7924-12.206 8.1203-2.1454-1.2541z"
            fill="#F0F5FA" />
        <path
            d="m32.194 25.391-12.448 7.002c-0.4292 0.2415-0.9596-0.0687-0.9596-0.5612l-0.6438-10.231 0.6438-10.064c0-0.2326 0.1255-0.4471 0.3282-0.5612l12.448-7.002c0.4292-0.24145 0.9596 0.0687 0.9596 0.56119v20.295c0 0.2327-0.1255 0.4473-0.3282 0.5613z"
            fill="#15C69B" />
        <path
            d="m31.561 3.9738-1.6159 0.90894v19.947c0 0.2327-0.1255 0.4472-0.3281 0.5612l-10.832 6.0931v0.3477c0 0.4925 0.5303 0.8026 0.9595 0.5612l12.448-7.002c0.2028-0.114 0.3282-0.3285 0.3282-0.5612v-20.295c0-0.49242-0.5304-0.80257-0.9596-0.56112z"
            fill="#1AA483" />
        <path
            d="m13.491 32.393-12.448-7.0021c-0.20275-0.114-0.32818-0.3285-0.32818-0.5611v-20.295c0-0.49243 0.53035-0.80257 0.95955-0.56119l12.448 7.0021c0.2027 0.114 0.3282 0.3285 0.3282 0.5611v20.295c0 0.4925-0.5303 0.8026-0.9595 0.5612z"
            fill="#15C69B" />
        <path
            d="m14.122 10.976-12.448-7.002c-0.4292-0.24145-0.95955 0.0687-0.95955 0.56112v0.34782l10.832 6.0931c0.2028 0.114 0.3282 0.3286 0.3282 0.5612v19.947l1.6159 0.9089c0.4292 0.2415 0.9596-0.0687 0.9596-0.5612l0.6438-10.199-0.6438-10.096c0-0.2325-0.1255-0.4471-0.3282-0.5611z"
            fill="#1AA483" />
        <path d="m30.161 12.415-9.0144 5.1509v-3.1131l9.0144-5.1509v3.1131z" fill="#fff" />
        <path
            d="m18.143 32.932h-3.0476c-0.3556 0-0.6438-0.2883-0.6438-0.6439v-20.485c0-0.3556 0.2882-0.6438 0.6438-0.6438h3.0476c0.3556 0 0.6439 0.2882 0.6439 0.6438v20.485c0 0.3556-0.2883 0.6439-0.6439 0.6439z"
            fill="#15C69B" />
        <path
            d="m18.142 11.16h-2.1892c0.3556 0 0.6439 0.2882 0.6439 0.6438v20.485c0 0.3556-0.2883 0.6439-0.6439 0.6439h2.1892c0.3556 0 0.6438-0.2883 0.6438-0.6439v-20.485c0-0.3556-0.2882-0.6438-0.6438-0.6438z"
            fill="#1AA483" />
        <path d="m14.451 13.406h4.3353v2.1462h-4.3353v-2.1462z" fill="#FFDA45" />
        <path d="m14.451 28.54h4.3353v2.1462h-4.3353v-2.1462z" fill="#FFDA45" />
        <path
            d="m16.62 25.427c-0.2667 0-0.4829-0.2162-0.4829-0.4829v-5.7948c0-0.2667 0.2162-0.4829 0.4829-0.4829s0.4829 0.2162 0.4829 0.4829v5.7948c0 0.2667-0.2162 0.4829-0.4829 0.4829z"
            fill="#fff" />
    </g>
    <defs>
        <clipPath id="a">
            <rect transform="translate(.61914 .93262)" width="32" height="32" fill="#fff" />
        </clipPath>
    </defs>
</svg>
