<svg width="16" height="16" viewBox="0 0 16 16" fill="none" xmlns="http://www.w3.org/2000/svg">
    <g clip-path="url(#clip0_63_8586)">
        <path
            d="M8.03516 0.903076C6.5518 0.903076 5.10175 1.34294 3.86838 2.16705C2.63501 2.99116 1.67372 4.1625 1.10606 5.53295C0.538406 6.9034 0.389881 8.4114 0.67927 9.86625C0.968659 11.3211 1.68296 12.6575 2.73186 13.7064C3.78075 14.7553 5.11713 15.4696 6.57198 15.759C8.02684 16.0484 9.53484 15.8998 10.9053 15.3322C12.2757 14.7645 13.4471 13.8032 14.2712 12.5699C15.0953 11.3365 15.5352 9.88644 15.5352 8.40308C15.533 6.41461 14.7421 4.50821 13.3361 3.10215C11.93 1.69609 10.0236 0.905227 8.03516 0.903076V0.903076ZM8.03516 14.6531C6.79903 14.6531 5.59065 14.2865 4.56285 13.5998C3.53504 12.913 2.73396 11.9369 2.26091 10.7948C1.78786 9.65281 1.66409 8.39614 1.90525 7.18376C2.14641 5.97138 2.74166 4.85774 3.61574 3.98366C4.48982 3.10958 5.60346 2.51433 6.81585 2.27317C8.02823 2.03201 9.28489 2.15578 10.4269 2.62883C11.569 3.10188 12.5451 3.90296 13.2318 4.93076C13.9186 5.95857 14.2852 7.16694 14.2852 8.40308C14.2833 10.0601 13.6243 11.6488 12.4526 12.8205C11.2809 13.9922 9.6922 14.6513 8.03516 14.6531Z"
            fill="#1AA483" />
        <path
            d="M8.03516 4.02808C7.8694 4.02808 7.71042 4.09392 7.59321 4.21113C7.476 4.32834 7.41016 4.48732 7.41016 4.65308V9.65308C7.41016 9.81884 7.476 9.97781 7.59321 10.095C7.71042 10.2122 7.8694 10.2781 8.03516 10.2781C8.20092 10.2781 8.35989 10.2122 8.4771 10.095C8.59431 9.97781 8.66016 9.81884 8.66016 9.65308V4.65308C8.66016 4.48732 8.59431 4.32834 8.4771 4.21113C8.35989 4.09392 8.20092 4.02808 8.03516 4.02808Z"
            fill="#1AA483" />
        <path
            d="M8.66016 12.1531C8.66016 11.8079 8.38033 11.5281 8.03516 11.5281C7.68998 11.5281 7.41016 11.8079 7.41016 12.1531C7.41016 12.4983 7.68998 12.7781 8.03516 12.7781C8.38033 12.7781 8.66016 12.4983 8.66016 12.1531Z"
            fill="#1AA483" />
    </g>
    <defs>
        <clipPath id="clip0_63_8586">
            <rect width="15" height="15" fill="white" transform="translate(0.535156 0.903076)" />
        </clipPath>
    </defs>
</svg>
