<?xml version="1.0" encoding="UTF-8"?>
<svg fill="none" viewBox="0 0 17 18" xmlns="http://www.w3.org/2000/svg">
    <path
        d="m11.204 0.7002c0.442 0 0.866 0.17559 1.1785 0.48816l3.9053 3.9052c0.3126 0.31255 0.4882 0.73648 0.4882 1.1785v5.5228c0 0.442-0.1756 0.866-0.4882 1.1785l-3.9053 3.9053c-0.3125 0.3126-0.7365 0.4882-1.1785 0.4882h-5.5228c-0.44202 0-0.86595-0.1756-1.1785-0.4882l-3.9052-3.9053c-0.31257-0.3125-0.48816-0.7365-0.48816-1.1785v-5.5228c0-0.44202 0.17559-0.86595 0.48816-1.1785l3.9052-3.9052c0.31255-0.31256 0.73648-0.48816 1.1785-0.48816h5.5228zm-2.7614 10.833c-0.46025 0-0.83333 0.3731-0.83333 0.8334 0 0.4602 0.37308 0.8333 0.83333 0.8333s0.83333-0.3731 0.83333-0.8333c0-0.4603-0.37308-0.8334-0.83333-0.8334zm0-7.5c-0.42738 0-0.77959 0.3217-0.82773 0.73615l-0.0056 0.09718v5c0 0.46024 0.37308 0.83334 0.83333 0.83334 0.42737 0 0.77959-0.3217 0.82773-0.73615l0.0056-0.09719v-5c0-0.46023-0.37308-0.83333-0.83333-0.83333z"
        clip-rule="evenodd" fill="#1AA483" fill-rule="evenodd" />
</svg>
