<svg width="24" height="24" viewBox="0 0 24 24" fill="none" xmlns="http://www.w3.org/2000/svg">
    <path
        d="M20.2734 4.8572C20.1695 3.53067 19.1305 2.40822 17.7799 2.30618C16.3253 2.20414 14.1435 2.00006 12.5851 2.00006C11.0266 2.00006 8.84482 2.20414 7.39028 2.40822C6.03963 2.51026 5.00067 3.53067 4.89677 4.8572C4.79287 6.48986 4.58508 9.65312 4.58508 12.0001C4.58508 14.245 4.79287 17.4082 4.89677 19.1429C5.00067 20.4694 6.03963 21.5919 7.39028 21.6939C8.84482 21.796 11.0266 22.0001 12.5851 22.0001C14.1435 22.0001 16.3253 21.796 17.7799 21.6939C19.1305 21.5919 20.1695 20.4694 20.2734 19.1429C20.3773 17.5103 20.5851 14.347 20.5851 12.0001C20.5851 9.65312 20.3773 6.5919 20.2734 4.8572ZM9.4682 9.14292H12.5851C13.0007 9.14292 13.4163 9.44904 13.4163 9.95925C13.4163 10.4694 13.1046 10.7756 12.5851 10.7756H9.4682C9.05262 10.7756 8.63703 10.4694 8.63703 9.95925C8.63703 9.44904 9.05262 9.14292 9.4682 9.14292ZM15.702 14.8572H9.4682C9.05262 14.8572 8.63703 14.5511 8.63703 14.0409C8.63703 13.5307 8.94872 13.2246 9.4682 13.2246H15.702C16.1176 13.2246 16.5331 13.5307 16.5331 14.0409C16.5331 14.5511 16.1176 14.8572 15.702 14.8572Z"
        fill="#FFFFFF" />
</svg>
