<?xml version="1.0" encoding="UTF-8"?>
<svg fill="none" viewBox="0 0 33 33" xmlns="http://www.w3.org/2000/svg">
    <g clip-path="url(#a)">
        <path d="m16.619 0.93262-8 16 8 16c8.8366 0 16-7.1634 16-16 0-8.8365-7.1634-16-16-16z"
            fill="#14CFFF" />
        <path d="m0.61914 16.933c0 8.8366 7.1634 16 16 16v-32c-8.8365 0-16 7.1634-16 16z"
            fill="#14CFFF" />
        <path
            d="m16.619 4.6826-6.125 12.25 6.125 12.25c6.7655 0 12.25-5.4845 12.25-12.25s-5.4845-12.25-12.25-12.25z"
            fill="#E4F5FF" />
        <path
            d="m4.3691 16.933c0 6.7655 5.4845 12.25 12.25 12.25v-24.5c-6.7655 0-12.25 5.4845-12.25 12.25z"
            fill="#E4F5FF" />
        <path d="m15.697 21.151v-3.75l-0.8839-0.8839-0.9911 2.7589v1.875h1.875z" fill="#340D66" />
        <path d="m15.697 10.87h-1.875v8.4062l1.875-1.875v-6.5312z" fill="#373E9F" />
        <path d="m22.01 19.676-4.5625-1e-4 -2.7589 0.9911 0.8839 0.8839h6.4375v-1.8749z"
            fill="#373E9F" />
        <path d="m13.819 19.676v1.8749h1.8749l1.875-1.8749h-3.7499z" fill="#3857BC" />
    </g>
    <defs>
        <clipPath id="a">
            <rect transform="translate(.61914 .93262)" width="32" height="32" fill="#fff" />
        </clipPath>
    </defs>
</svg>
