<svg width="24" height="24" viewBox="0 0 17 20" fill="none" xmlns="http://www.w3.org/2000/svg">
    <path fill-rule="evenodd" clip-rule="evenodd"
        d="M8.17188 1.53846C6.64702 1.53846 4.5994 1.70582 3.1673 1.8447C2.57304 1.90233 2.10928 2.3731 2.06328 2.96993C1.92087 4.81754 1.72026 7.81282 1.72026 10C1.72026 12.1872 1.92087 15.1825 2.06328 17.0301C2.10928 17.6269 2.57304 18.0977 3.1673 18.1553C4.5994 18.2942 6.64702 18.4615 8.17188 18.4615C9.69674 18.4615 11.7443 18.2942 13.1765 18.1553C13.7707 18.0977 14.2345 17.6269 14.2805 17.0301C14.4229 15.1825 14.6235 12.1872 14.6235 10C14.6235 7.81282 14.4229 4.81754 14.2805 2.96993C14.2345 2.3731 13.7707 1.90233 13.1765 1.8447C11.7443 1.70582 9.69674 1.53846 8.17188 1.53846ZM3.01689 0.313513C4.45278 0.17427 6.56541 0 8.17188 0C9.77834 0 11.891 0.17427 13.3269 0.313513C14.6748 0.444226 15.7213 1.51605 15.8243 2.85245C15.9668 4.70071 16.1719 7.74813 16.1719 10C16.1719 12.2519 15.9668 15.2993 15.8243 17.1476C15.7213 18.484 14.6748 19.5558 13.3269 19.6865C11.891 19.8257 9.77834 20 8.17188 20C6.56541 20 4.45278 19.8257 3.01689 19.6865C1.66897 19.5558 0.622422 18.484 0.519415 17.1476C0.376956 15.2993 0.171875 12.2519 0.171875 10C0.171875 7.74813 0.376956 4.70071 0.519415 2.85245C0.622422 1.51605 1.66897 0.444226 3.01689 0.313513Z"
        fill="#FFFFFF" />
    <path fill-rule="evenodd" clip-rule="evenodd"
        d="M4.30091 12.0513C4.30091 12.4761 4.64753 12.8205 5.0751 12.8205H11.2686C11.6962 12.8205 12.0428 12.4761 12.0428 12.0513C12.0428 11.6264 11.6962 11.2821 11.2686 11.2821H5.0751C4.64753 11.2821 4.30091 11.6264 4.30091 12.0513Z"
        fill="#FFFFFF" />
    <path fill-rule="evenodd" clip-rule="evenodd"
        d="M4.30091 7.94872C4.30091 8.37355 4.64753 8.71795 5.0751 8.71795H8.17188C8.59945 8.71795 8.94607 8.37355 8.94607 7.94872C8.94607 7.52388 8.59945 7.17949 8.17188 7.17949H5.0751C4.64753 7.17949 4.30091 7.52388 4.30091 7.94872Z"
        fill="#FFFFFF" />
</svg>
