<svg width="16" height="16" viewBox="0 0 16 16" fill="none" xmlns="http://www.w3.org/2000/svg">
    <path
        d="M7.979 1.80615V3.2124M11.9565 3.45365L10.9621 4.44803M13.604 7.43115H12.1978M11.9565 11.4087L10.9621 10.4143M7.979 11.6499V13.0562M4.99588 10.4143L4.0015 11.4087M3.76025 7.43115H2.354M4.99588 4.44803L4.0015 3.45365M10.3228 7.43115C10.3228 8.05275 10.0758 8.6489 9.63629 9.08843C9.19675 9.52797 8.60061 9.7749 7.979 9.7749C7.3574 9.7749 6.76126 9.52797 6.32172 9.08843C5.88218 8.6489 5.63525 8.05275 5.63525 7.43115C5.63525 6.80955 5.88218 6.21341 6.32172 5.77387C6.76126 5.33433 7.3574 5.0874 7.979 5.0874C8.60061 5.0874 9.19675 5.33433 9.63629 5.77387C10.0758 6.21341 10.3228 6.80955 10.3228 7.43115V7.43115Z"
        stroke="white" stroke-width="1.5" stroke-linecap="round" stroke-linejoin="round" />
</svg>
