<svg width="24" height="24" viewBox="0 0 24 24" fill="none" xmlns="http://www.w3.org/2000/svg">
    <path fill-rule="evenodd" clip-rule="evenodd"
        d="M12.5851 3.53846C10.7323 3.53846 9.23031 5.03085 9.23031 6.8718C9.23031 8.71274 10.7323 10.2051 12.5851 10.2051C14.438 10.2051 15.94 8.71274 15.94 6.8718C15.94 5.03085 14.438 3.53846 12.5851 3.53846ZM7.68192 6.8718C7.68192 4.18118 9.87717 2 12.5851 2C15.2931 2 17.4884 4.18118 17.4884 6.8718C17.4884 9.56241 15.2931 11.7436 12.5851 11.7436C9.87717 11.7436 7.68192 9.56241 7.68192 6.8718Z"
        fill="#FFFFFF" />
    <path fill-rule="evenodd" clip-rule="evenodd"
        d="M10.0513 15.3333C7.88758 15.3333 6.13353 17.0761 6.13353 19.226C6.13353 19.3389 6.15429 19.4186 6.17606 19.465C6.19444 19.5041 6.2102 19.5153 6.22335 19.5224C6.82502 19.8477 8.51196 20.4615 12.5851 20.4615C16.6583 20.4615 18.3453 19.8477 18.9469 19.5224C18.9601 19.5153 18.9759 19.5041 18.9942 19.465C19.016 19.4186 19.0368 19.3389 19.0368 19.226C19.0368 17.0761 17.2827 15.3333 15.119 15.3333H10.0513ZM4.58514 19.226C4.58514 16.2265 7.03243 13.7949 10.0513 13.7949H15.119C18.1379 13.7949 20.5851 16.2265 20.5851 19.226C20.5851 19.7766 20.3845 20.4966 19.687 20.8737C18.7631 21.3733 16.781 22 12.5851 22C8.38928 22 6.4072 21.3733 5.48326 20.8737C4.78578 20.4966 4.58514 19.7766 4.58514 19.226Z"
        fill="#FFFFFF" />
</svg>
