<svg width="24" height="24" viewBox="0 0 24 24" fill="none" xmlns="http://www.w3.org/2000/svg">
    <path
        d="M12.5852 11.796C15.3041 11.796 17.5083 9.60307 17.5083 6.89801C17.5083 4.19294 15.3041 2.00005 12.5852 2.00005C9.86627 2.00005 7.66213 4.19294 7.66213 6.89801C7.66213 9.60307 9.86627 11.796 12.5852 11.796Z"
        fill="#FFFFFF" />
    <path
        d="M15.1493 13.8369H10.0211C7.04674 13.8369 4.58521 16.2859 4.58521 19.245C4.58521 19.9593 4.8929 20.5716 5.50828 20.8777C6.43136 21.3879 8.48264 22.0001 12.5852 22.0001C16.6878 22.0001 18.7391 21.3879 19.6621 20.8777C20.1749 20.5716 20.5852 19.9593 20.5852 19.245C20.5852 16.1838 18.1237 13.8369 15.1493 13.8369Z"
        fill="#FFFFFF" />
</svg>
