<svg width="16" height="16" viewBox="0 0 16 16" fill="none" xmlns="http://www.w3.org/2000/svg">
    <g clip-path="url(#clip0_63_8582)">
        <path
            d="M12.504 10.0699C12.0315 10.0702 11.5661 10.1856 11.1481 10.406C10.7301 10.6264 10.3719 10.9452 10.1046 11.3349L6.03651 9.49799C6.32546 8.80026 6.32658 8.01654 6.03964 7.31799L10.1021 5.47174C10.4983 6.04471 11.0867 6.45671 11.7606 6.63302C12.4346 6.80932 13.1493 6.73824 13.7753 6.43267C14.4013 6.12711 14.8971 5.6073 15.1727 4.96753C15.4482 4.32776 15.4854 3.61041 15.2774 2.9456C15.0693 2.28078 14.6299 1.71255 14.0388 1.34396C13.4477 0.97537 12.7441 0.830845 12.0556 0.936597C11.3671 1.04235 10.7393 1.39137 10.286 1.92036C9.8328 2.44935 9.58418 3.12327 9.58526 3.81986C9.58791 3.98474 9.60464 4.14908 9.63526 4.31111L5.31651 6.27361C4.90172 5.885 4.38245 5.62601 3.8225 5.52846C3.26254 5.43092 2.68628 5.49906 2.16452 5.72452C1.64276 5.94999 1.19822 6.32295 0.885509 6.79759C0.572804 7.27223 0.405553 7.82788 0.404304 8.39627C0.403055 8.96466 0.567863 9.52103 0.87848 9.99704C1.1891 10.4731 1.63199 10.848 2.15276 11.0757C2.67353 11.3035 3.24948 11.3741 3.80986 11.2791C4.37024 11.184 4.89065 10.9273 5.30714 10.5405L9.63714 12.4955C9.60706 12.6574 9.59055 12.8215 9.58776 12.9861C9.58764 13.5631 9.75862 14.1271 10.0791 14.6069C10.3995 15.0866 10.8551 15.4606 11.3881 15.6815C11.9211 15.9023 12.5077 15.9601 13.0735 15.8476C13.6394 15.7351 14.1592 15.4572 14.5672 15.0493C14.9751 14.6413 15.253 14.1215 15.3655 13.5556C15.478 12.9898 15.4202 12.4032 15.1994 11.8702C14.9785 11.3372 14.6045 10.8816 14.1248 10.5612C13.645 10.2407 13.081 10.0697 12.504 10.0699ZM12.504 2.15299C12.8337 2.15286 13.156 2.25052 13.4302 2.4336C13.7044 2.61669 13.9182 2.87697 14.0444 3.18154C14.1707 3.48611 14.2038 3.82129 14.1396 4.14467C14.0753 4.46805 13.9166 4.76512 13.6835 4.9983C13.4504 5.23148 13.1534 5.3903 12.8301 5.45466C12.5067 5.51903 12.1715 5.48606 11.8669 5.35991C11.5623 5.23377 11.3019 5.02012 11.1187 4.74599C10.9355 4.47186 10.8378 4.14956 10.8378 3.81986C10.8381 3.37799 11.0137 2.9543 11.3261 2.64179C11.6385 2.32928 12.0621 2.15348 12.504 2.15299ZM3.33776 10.0699C3.00806 10.07 2.68572 9.97233 2.41153 9.78925C2.13733 9.60616 1.92358 9.34588 1.79732 9.04131C1.67107 8.73673 1.63797 8.40156 1.70221 8.07818C1.76646 7.7548 1.92517 7.45773 2.15826 7.22455C2.39135 6.99137 2.68836 6.83255 3.01172 6.76819C3.33507 6.70382 3.67026 6.73679 3.97488 6.86294C4.2795 6.98908 4.53986 7.20273 4.72305 7.47686C4.90624 7.75099 5.00401 8.07328 5.00401 8.40299C5.00352 8.84481 4.82783 9.2684 4.51547 9.58088C4.20311 9.89335 3.77958 10.0692 3.33776 10.0699ZM12.504 14.653C12.1743 14.653 11.8521 14.5552 11.5779 14.3721C11.3038 14.1889 11.0902 13.9286 10.964 13.624C10.8379 13.3194 10.8048 12.9843 10.8692 12.6609C10.9335 12.3376 11.0922 12.0406 11.3254 11.8075C11.5585 11.5743 11.8555 11.4156 12.1788 11.3513C12.5022 11.2869 12.8373 11.32 13.1419 11.4461C13.4465 11.5723 13.7068 11.7859 13.89 12.06C14.0731 12.3342 14.1709 12.6564 14.1709 12.9861C14.1706 13.4281 13.9948 13.8519 13.6823 14.1644C13.3698 14.4769 12.946 14.6527 12.504 14.653Z"
            fill="#1AA483" />
    </g>
    <defs>
        <clipPath id="clip0_63_8582">
            <rect width="15" height="15" fill="white" transform="translate(0.420898 0.903076)" />
        </clipPath>
    </defs>
</svg>
