<?xml version="1.0" encoding="UTF-8"?>
<svg fill="none" viewBox="0 0 23 22" xmlns="http://www.w3.org/2000/svg">
    <path
        d="m10.985 3.2435c-4.0249 0-7.2863 3.2588-7.2863 7.2771 0 4.0183 3.2614 7.2771 7.2863 7.2771 2.008 0 3.825-0.8103 5.1436-2.1228 1.3245-1.3184 2.1427-3.1403 2.1427-5.1543 0-4.0182-3.2614-7.2771-7.2863-7.2771zm-8.6966 7.2771c0-4.7986 3.8944-8.6874 8.6966-8.6874 4.8022 0 8.6966 3.8887 8.6966 8.6874 0 2.1499-0.7825 4.1182-2.0772 5.6347l2.8105 2.8073c0.2756 0.2752 0.2758 0.7216 6e-4 0.9972-0.2752 0.2755-0.7216 0.2758-0.9972 5e-4l-2.8132-2.8099c-1.5154 1.283-3.4778 2.0576-5.6201 2.0576-4.8022 0-8.6966-3.8887-8.6966-8.6874z"
        clip-rule="evenodd" fill="#fff" fill-rule="evenodd" />
</svg>
