<svg width="20" height="20" viewBox="0 0 20 20" fill="none" xmlns="http://www.w3.org/2000/svg">
    <path
        d="M19.631 8.3L16.2854 2.3C15.695 1.2 14.5141 0.5 13.3333 0.5H6.74047C5.46126 0.5 4.37884 1.2 3.78844 2.3L0.442805 8.3C-0.147601 9.4 -0.147601 10.7 0.442805 11.7L3.78844 17.7C4.37884 18.8 5.55966 19.5 6.74047 19.5H13.3333C14.6125 19.5 15.695 18.8 16.2854 17.7L19.631 11.7C20.123 10.7 20.123 9.3 19.631 8.3ZM9.9877 13.8C7.92128 13.8 6.24846 12.1 6.24846 10C6.24846 7.9 7.92128 6.2 9.9877 6.2C12.0541 6.2 13.7269 7.9 13.7269 10C13.7269 12.1 12.0541 13.8 9.9877 13.8Z"
        fill="#1AA483" />
</svg>

