<svg width="46" height="40" viewBox="0 0 46 40" fill="none" xmlns="http://www.w3.org/2000/svg">
    <path fill-rule="evenodd" clip-rule="evenodd"
        d="M11.1724 3.1013L9.01671 5.77525L9.47578 7.43064C9.72824 8.34105 9.96502 9.14451 10.0019 9.21617C10.0409 9.29198 10.7067 8.53121 11.5927 7.39851C12.4307 6.32712 13.1487 5.44753 13.188 5.44393C13.3185 5.43184 13.4199 7.54042 13.3553 8.92254C13.1844 12.5785 11.6962 14.8601 9.16015 15.3547C8.24124 15.5338 6.28503 15.4261 5.16573 15.1347C2.92754 14.552 1.34655 13.2703 0.691646 11.5076C0.380152 10.6694 0.356627 10.8963 0.641873 11.9855C1.33054 14.6147 2.88626 16.794 4.78768 17.7931C6.28122 18.578 8.36965 18.8332 10.1726 18.4513C12.3587 17.9882 14.076 16.4707 14.8664 14.3035L15.1525 13.5189L15.9315 13.8741C16.36 14.0695 17.115 14.4326 17.6092 14.6812L18.5077 15.133V17.0378C18.5077 18.0855 18.5504 18.9426 18.6026 18.9426C18.6547 18.9426 19.0468 18.7883 19.4739 18.5997L20.2503 18.2567V10.0927C20.2503 3.60536 20.2223 1.93984 20.1142 1.98265C20.0393 2.01238 19.6473 2.16987 19.2429 2.3327L18.5077 2.62872V6.82191C18.5077 10.32 18.4831 11.0057 18.359 10.9581C18.2772 10.9268 17.6472 10.7435 16.9587 10.5508L15.707 10.2004L15.6326 8.88072C15.4848 6.26199 14.9982 3.76372 14.2688 1.8794C13.9451 1.04305 13.5788 0.427246 13.4051 0.427246C13.3628 0.427246 12.3581 1.63053 11.1724 3.1013ZM30.2087 2.39979C30.4075 3.14193 30.6252 3.95029 30.6926 4.19611L30.8148 4.64309L32.2007 4.72009C33.7812 4.80788 34.8734 5.00959 35.5007 5.32958L35.9339 5.55067V8.18813V10.8256L35.5674 10.2825C35.0814 9.56197 34.4563 9.2128 33.654 9.21356C33.3026 9.21388 32.9013 9.29012 32.6994 9.3949C32.3247 9.58942 31.8668 10.1258 31.7073 10.5571L31.6086 10.8237L31.4403 10.4994C31.1576 9.95494 30.6036 9.31953 30.1365 9.00422C29.6318 8.66343 29.0258 8.6105 28.5349 8.86438C27.8254 9.23131 26.8507 10.7222 26.4561 12.0439C26.3336 12.4545 26.3543 12.6229 26.6771 13.841C26.873 14.5803 27.0584 15.2291 27.089 15.283C27.1197 15.3368 27.228 15.0609 27.3297 14.6699C27.5666 13.7594 28.1311 12.5508 28.5071 12.1493C29.0997 11.5163 29.8909 11.4344 30.7989 11.9119C31.1713 12.1078 31.9408 12.9141 32.1556 13.3336C32.3347 13.6831 32.3264 13.6928 32.548 12.8756C32.7337 12.1914 33.1462 11.7543 33.6063 11.7543C34.3862 11.7543 35.1953 12.3872 35.6249 13.3336C35.8421 13.8116 35.8774 14.0948 35.9144 15.6518C35.9623 17.6688 35.8517 17.526 36.9794 17.0273L37.5676 16.7671V10.0214V3.27567L37.2704 2.92247C36.5894 2.11313 33.86 1.35334 30.8052 1.12277L29.8472 1.05045L30.2087 2.39979ZM23.0821 3.57268L22.3741 3.87808L22.3463 12.0656L22.3183 20.2531L22.7275 20.0791C22.9525 19.9835 23.3204 19.8304 23.545 19.7388L23.9534 19.5725V11.4157C23.9534 6.92952 23.9167 3.26086 23.8717 3.26315C23.8267 3.26544 23.4714 3.40474 23.0821 3.57268ZM42.5507 10.8123L41.8158 11.1553L41.8155 19.1877C41.8154 23.6056 41.7968 27.2201 41.7741 27.2201C41.7515 27.2201 41.5446 27.1415 41.3145 27.0453C40.9077 26.8753 40.2574 26.8802 39.8276 27.0564C39.6901 27.1127 39.637 27.0828 39.637 26.9487C39.637 26.2947 38.9183 25.636 37.9161 25.3717C37.5052 25.2635 37.4564 25.2188 37.519 25.0089C37.6334 24.6245 38.0793 23.8879 39.1295 22.3479C39.6701 21.5553 40.0911 20.8851 40.0648 20.8589C39.9791 20.7733 37.738 21.782 37.4709 22.0264C36.2353 23.1576 34.9172 25.2833 34.7741 26.376L34.7063 26.8934L35.7285 26.894C36.2907 26.8943 36.9323 26.945 37.1543 27.0066C37.5813 27.1252 38.0033 27.5573 38.0033 27.8759C38.0033 28.1768 37.2242 29.2589 36.2673 30.2873L35.3894 31.2306L35.6733 32.3022C35.8294 32.8916 35.9685 33.3863 35.9823 33.4015C35.9962 33.4168 36.4369 32.9165 36.9616 32.2898C38.2074 30.8022 39.6425 29.4319 40.2238 29.1748C40.7798 28.9287 41.4015 29.0423 41.6234 29.4304C41.7066 29.5758 41.7823 30.2591 41.8153 31.1616L41.8697 32.6524L42.6866 32.2991L43.5035 31.9458L43.5314 24.4096L43.5594 16.8733H43.9387C44.3035 16.8733 44.3344 16.8404 44.756 16.002L45.194 15.1306H44.3781H43.5623L43.5329 12.8253C43.5147 11.4022 43.4617 10.5102 43.3945 10.4946C43.3346 10.4807 42.955 10.6237 42.5507 10.8123ZM28.7729 17.6882C27.7817 17.9089 27.0553 18.3421 26.1242 19.2672C25.3627 20.0238 24.5024 21.2706 24.644 21.4121C24.6772 21.4455 25.0801 21.3163 25.5393 21.1252C27.2544 20.4112 28.8241 20.2761 29.9731 20.7435C31.0376 21.1766 31.8069 21.3387 32.797 21.3387C33.985 21.3387 34.711 21.0128 35.1841 20.2667C35.3569 19.9942 35.4983 19.7345 35.4983 19.6897C35.4983 19.5498 34.2783 18.7261 33.5701 18.3877C32.1508 17.7098 30.0505 17.4035 28.7729 17.6882ZM15.0037 18.538C14.3888 19.0046 13.5559 20.1187 12.9945 21.2257L12.5456 22.1104L12.8702 23.331C13.0487 24.0024 13.2078 24.5661 13.2237 24.5836C13.2397 24.6011 13.5621 24.2934 13.9402 23.8996C15.0196 22.7755 15.8446 22.3255 16.2858 22.6201C16.4909 22.7571 16.6408 23.131 16.7152 23.6915C16.9105 25.1639 15.8755 26.4973 13.6771 27.6054L12.7131 28.0914H11.4172H10.1213V29.9729V31.8543L10.9387 31.9843C12.5187 32.2357 13.9755 32.9753 17.8287 35.4823C21.73 38.0207 23.5242 38.9483 25.549 39.4744C27.9852 40.1075 30.6605 39.8661 32.6032 38.8383C33.6776 38.2699 34.6846 37.1217 34.9097 36.2086L34.9894 35.885L34.6374 36.2859C33.9534 37.0649 32.5543 37.5193 30.3863 37.6667C28.1173 37.8209 26.613 37.51 24.4195 36.4336C22.2967 35.3917 20.0417 33.7985 17.6651 31.6615C15.7564 29.9451 15.8715 30.1714 16.5368 29.4436C17.7087 28.1613 18.7013 26.4922 19.1223 25.0963C19.5992 23.5143 19.2478 21.3104 18.2842 19.8418C17.2497 18.2652 16.0115 17.7731 15.0037 18.538ZM21.4484 22.8623L20.7404 23.1722L20.712 27.7012C20.6963 30.1921 20.7059 32.2301 20.7332 32.2301C20.7605 32.2301 21.1531 32.0614 21.6058 31.8551L22.4286 31.4802V27.0085C22.4286 23.4995 22.3993 22.5385 22.2925 22.5446C22.2176 22.549 21.8377 22.692 21.4484 22.8623ZM25.1242 22.888L24.389 23.2214V27.7348C24.389 30.2172 24.4289 32.232 24.4775 32.212C24.5262 32.192 24.9182 32.0286 25.3485 31.8489L26.1309 31.5222L26.1313 27.0295C26.1316 23.503 26.1024 22.5388 25.9955 22.5457C25.9207 22.5506 25.5285 22.7046 25.1242 22.888ZM28.4062 23.2631L27.5767 23.6432L27.5077 24.304C27.4003 25.332 27.4264 28.6493 27.5471 29.3019C27.7254 30.2659 27.8417 30.4106 28.3887 30.349C28.9292 30.288 29.7809 29.8015 30.7675 28.9899C31.1498 28.6755 31.4762 28.418 31.4927 28.418C31.5094 28.4179 31.5058 28.6926 31.4849 29.0285C31.4309 29.8974 31.6498 31.5799 31.906 32.2647C32.1453 32.9042 32.4422 33.2404 32.9315 33.4258C33.2395 33.5426 33.281 33.517 34.098 32.7048L34.945 31.8628L34.4352 31.6924C33.1228 31.2541 32.6965 29.0821 33.2528 25.6681C33.3285 25.2039 33.3607 24.824 33.3246 24.824C33.2884 24.824 32.6363 25.1589 31.8755 25.5683C30.2348 26.4512 29.6706 26.6639 29.4788 26.4721C29.3922 26.3855 29.3281 25.7492 29.2915 24.6118L29.2357 22.8831L28.4062 23.2631Z"
        fill="white" />
</svg>
