<svg width="29" height="28" viewBox="0 0 29 28" fill="none" xmlns="http://www.w3.org/2000/svg">
<path d="M0.306641 14C0.306641 21.732 6.57465 28 14.3066 28C22.0386 28 28.3066 21.732 28.3066 14C28.3066 6.26801 22.0386 0 14.3066 0C6.57465 0 0.306641 6.26801 0.306641 14Z" fill="#2867B2"/>
<path d="M10.4566 21H7.48164V11.6375H10.4566V21ZM8.96914 10.325C8.00664 10.325 7.30664 9.625 7.30664 8.6625C7.30664 7.7 8.09414 7 8.96914 7C9.93164 7 10.6316 7.7 10.6316 8.6625C10.6316 9.625 9.93164 10.325 8.96914 10.325ZM21.3066 21H18.3316V15.925C18.3316 14.4375 17.7191 14 16.8441 14C15.9691 14 15.0941 14.7 15.0941 16.0125V21H12.1191V11.6375H14.9191V12.95C15.1816 12.3375 16.2316 11.375 17.7191 11.375C19.3816 11.375 21.1316 12.3375 21.1316 15.225V21H21.3066Z" fill="white"/>
</svg>
