<svg width="29" height="28" viewBox="0 0 29 28" fill="none" xmlns="http://www.w3.org/2000/svg">
<path d="M0.806641 14C0.806641 21.732 7.07465 28 14.8066 28C22.5386 28 28.8066 21.732 28.8066 14C28.8066 6.26801 22.5386 0 14.8066 0C7.07465 0 0.806641 6.26801 0.806641 14Z" fill="#E60023"/>
<path d="M14.8066 7C10.9566 7 7.80664 10.15 7.80664 14C7.80664 16.8875 9.55664 19.3375 12.0066 20.3875C12.0066 19.8625 12.0066 19.3375 12.0941 18.8125C12.2691 18.2 12.9691 14.9625 12.9691 14.9625C12.9691 14.9625 12.7066 14.525 12.7066 13.825C12.7066 12.775 13.3191 11.9875 14.0191 11.9875C14.6316 11.9875 14.9816 12.425 14.9816 13.0375C14.9816 13.65 14.5441 14.6125 14.3691 15.4875C14.1941 16.1875 14.7191 16.8 15.5066 16.8C16.8191 16.8 17.6941 15.1375 17.6941 13.0375C17.6941 11.4625 16.6441 10.325 14.8066 10.325C12.7066 10.325 11.3941 11.9 11.3941 13.65C11.3941 14.2625 11.5691 14.7 11.8316 15.05C11.9191 15.225 12.0066 15.225 11.9191 15.4C11.9191 15.4875 11.8316 15.8375 11.7441 15.925C11.6566 16.1 11.5691 16.1875 11.3941 16.1C10.4316 15.6625 9.99414 14.6125 9.99414 13.3875C9.99414 11.375 11.6566 9.0125 14.9816 9.0125C17.6941 9.0125 19.4441 10.9375 19.4441 13.0375C19.4441 15.75 17.9566 17.85 15.6816 17.85C14.8941 17.85 14.1941 17.4125 13.9316 16.975C13.9316 16.975 13.4941 18.55 13.4066 18.9C13.2316 19.425 12.9691 19.95 12.7066 20.3875C13.3191 20.5625 14.0191 20.65 14.7191 20.65C18.5691 20.65 21.7191 17.5 21.7191 13.65C21.8066 10.15 18.6566 7 14.8066 7Z" fill="white"/>
</svg>
