<svg width="19" height="20" viewBox="0 0 19 20" fill="none" xmlns="http://www.w3.org/2000/svg">
<path fill-rule="evenodd" clip-rule="evenodd" d="M8.98503 2.24359C4.96014 2.24359 1.69871 5.50243 1.69871 9.52069C1.69871 13.539 4.96014 16.7978 8.98503 16.7978C10.993 16.7978 12.8101 15.9875 14.1286 14.675C15.4531 13.3566 16.2714 11.5347 16.2714 9.52069C16.2714 5.50243 13.0099 2.24359 8.98503 2.24359ZM0.288452 9.52069C0.288452 4.72203 4.18281 0.833336 8.98503 0.833336C13.7873 0.833336 17.6816 4.72203 17.6816 9.52069C17.6816 11.6706 16.8991 13.6389 15.6044 15.1553L18.415 17.9627C18.6905 18.2379 18.6908 18.6843 18.4155 18.9599C18.1403 19.2354 17.6939 19.2356 17.4183 18.9604L14.6052 16.1505C13.0897 17.4335 11.1273 18.208 8.98503 18.208C4.18281 18.208 0.288452 14.3194 0.288452 9.52069Z" fill="white"/>
</svg>
