<svg width="17" height="16" viewBox="0 0 17 16" fill="none" xmlns="http://www.w3.org/2000/svg">
<path fill-rule="evenodd" clip-rule="evenodd" d="M8.30664 16C10.4284 16 12.4632 15.1571 13.9635 13.6569C15.4638 12.1566 16.3066 10.1217 16.3066 8C16.3066 5.87827 15.4638 3.84344 13.9635 2.34315C12.4632 0.842855 10.4284 0 8.30664 0C6.18491 0 4.15008 0.842855 2.64979 2.34315C1.1495 3.84344 0.306641 5.87827 0.306641 8C0.306641 10.1217 1.1495 12.1566 2.64979 13.6569C4.15008 15.1571 6.18491 16 8.30664 16ZM12.0136 6.707C12.1958 6.5184 12.2966 6.2658 12.2943 6.0036C12.292 5.7414 12.1869 5.49059 12.0015 5.30518C11.8161 5.11977 11.5652 5.0146 11.303 5.01233C11.0408 5.01005 10.7882 5.11084 10.5996 5.293L7.30664 8.586L6.01364 7.293C5.82504 7.11084 5.57244 7.01005 5.31024 7.01233C5.04804 7.0146 4.79723 7.11977 4.61182 7.30518C4.42641 7.49059 4.32124 7.7414 4.31897 8.0036C4.31669 8.2658 4.41748 8.5184 4.59964 8.707L6.59964 10.707C6.78717 10.8945 7.04148 10.9998 7.30664 10.9998C7.57181 10.9998 7.82611 10.8945 8.01364 10.707L12.0136 6.707Z" fill="white"/>
</svg>
