<svg width="29" height="28" viewBox="0 0 29 28" fill="none" xmlns="http://www.w3.org/2000/svg">
<path d="M0.806641 14C0.806641 21.732 7.07465 28 14.8066 28C22.5386 28 28.8066 21.732 28.8066 14C28.8066 6.26801 22.5386 0 14.8066 0C7.07465 0 0.806641 6.26801 0.806641 14Z" fill="#1DA1F2"/>
<path d="M21.8066 9.625C21.2816 9.8875 20.7566 9.975 20.1441 10.0625C20.7566 9.7125 21.1941 9.1875 21.3691 8.4875C20.8441 8.8375 20.2316 9.0125 19.5316 9.1875C19.0066 8.6625 18.2191 8.3125 17.4316 8.3125C15.5941 8.3125 14.1941 10.0625 14.6316 11.8125C12.2691 11.725 10.1691 10.5875 8.68164 8.8375C7.89414 10.15 8.33164 11.8125 9.55664 12.6875C9.11914 12.6875 8.68164 12.5125 8.24414 12.3375C8.24414 13.65 9.20664 14.875 10.5191 15.225C10.0816 15.3125 9.64414 15.4 9.20664 15.3125C9.55664 16.45 10.6066 17.325 11.9191 17.325C10.8691 18.1125 9.29414 18.55 7.80664 18.375C9.11914 19.1625 10.6066 19.6875 12.1816 19.6875C17.5191 19.6875 20.4941 15.225 20.3191 11.1125C20.9316 10.7625 21.4566 10.2375 21.8066 9.625Z" fill="white"/>
</svg>
